<svg width="650" height="502" viewBox="0 0 650 502" fill="none" xmlns="http://www.w3.org/2000/svg">
<path d="M490.33 33.2602C503.066 28.3342 508.524 -1.22219 522.171 9.86145C591.312 3.95021 621.486 31.2077 627.929 45.5754C658.861 55.4275 649.157 89.0889 640.438 104.688C630.204 128.087 651.81 124.392 640.438 157.643C629.067 190.894 605.186 177.348 589.265 192.126C573.344 206.904 561.972 211.83 539.228 200.746C516.485 189.663 490.33 210.598 490.33 200.746C490.33 190.894 473.272 162.569 460.763 144.097C450.755 129.318 449.77 105.099 450.528 94.836C457.806 81.043 460.384 61.1746 460.763 52.9645C465.311 48.4489 477.593 38.1863 490.33 33.2602Z" fill="#F79E4D"/>
<path d="M491.258 25.8667C503.995 20.9406 509.453 -8.61575 523.099 2.46789C592.241 -3.44334 622.414 23.8142 628.858 38.1818C659.789 48.034 650.085 81.6954 641.367 97.2946C631.132 120.693 652.739 116.999 641.367 150.25C629.995 183.501 599.3 160.102 583.379 174.88C567.458 189.658 561.773 176.111 539.029 165.028C516.285 153.944 498.081 184.732 498.081 174.88C498.081 165.028 490.129 137.935 477.62 119.462C467.613 104.684 450.698 97.7051 451.456 87.4424C458.734 73.6495 461.312 53.781 461.691 45.5709C466.24 41.0554 478.521 30.7927 491.258 25.8667Z" fill="#FFBC7C"/>
<path d="M463.02 48.0387C467.568 43.5232 479.85 33.2605 492.587 28.3345L509.444 18.4775C507.17 22.9963 503.303 35.2348 506.033 48.0387C519.3 64.4573 545.834 99.7575 545.834 109.61C545.834 121.925 544.697 130.545 560.618 130.545C576.539 130.545 583.362 121.92 601.557 130.545C611.167 134.24 632.848 139.412 642.696 130.545V152.718C617.495 179.806 599.3 171.185 583.379 185.964C567.458 200.742 564.047 190.89 541.303 179.806C518.559 168.722 502.053 181.285 498.09 172.417C492.587 160.102 491.265 149.018 478.756 130.545C468.749 115.767 450.689 97.705 451.447 87.4424C458.725 73.6494 462.641 56.2488 463.02 48.0387Z" fill="#F8AF66"/>
<path d="M545.852 199.511L545.846 199.564C548.693 199.769 566.85 200.572 576.556 201.974C577.466 208.87 573.145 229.067 570.87 235.225C569.051 232.269 551.159 222.089 543.578 217.983L545.846 199.564C545.357 199.528 545.319 199.511 545.852 199.511Z" fill="#F6B2A2"/>
<path d="M486.718 500H0" stroke="#272525" stroke-width="4"/>
<rect x="304.767" y="130.546" width="118.268" height="115.762" fill="#321901"/>
<path d="M288.846 187.195L319.944 185.964L312.727 169.954C312.727 165.028 311.818 156.9 312.727 149.018C313.865 139.166 339.627 137.935 339.627 141.629V120.693L350.999 136.703L362.371 131.777L387.389 146.555L383.977 172.417L387.389 183.501L389.663 165.028L391.938 146.555L400.291 153.944C402.187 155.176 401.201 157.639 400.291 167.491C399.154 179.806 397.624 177.343 397.624 183.501C397.624 189.658 395.349 194.584 391.938 201.973C389.208 207.885 385.494 222.499 383.977 229.067L395.349 217.983C391.938 226.604 390.801 240.15 395.349 238.919C399.898 237.687 404.447 231.53 412.407 229.067C420.367 226.604 410.133 233.993 416.956 240.15C423.779 246.308 422.642 247.539 434.014 247.539C445.386 247.539 448.797 238.919 460.169 217.983C471.541 197.047 468.13 190.89 464.718 179.806C461.306 168.722 452.209 169.954 439.7 158.87C427.191 147.787 430.602 139.166 427.191 102.221C424.461 72.6643 407.1 69.3802 398.761 71.4328C395.349 75.5378 387.844 82.7627 385.115 78.8219C376.017 58.1324 360.854 52.139 354.41 51.7285C323.479 54.6842 305.89 107.147 300.962 133.009C294.594 140.89 287.709 169.954 288.846 187.195Z" fill="#854E39"/>
<path d="M424.185 184.648L396.88 182.269L399.179 171.185L399.179 168.758C403.822 165.077 394.606 147.786 399.179 135.394C401.433 137.629 411.902 151.202 412.802 147.786C413.701 144.37 419.624 137.934 417.35 135.393C420.945 135.438 425.811 133.008 427.584 133.008C430.127 133.008 426.441 141.361 430.996 152.712C434.639 161.794 445.779 163.796 450.952 170.182L421.06 174.093L424.185 184.648Z" fill="#321901"/>
<path d="M401.429 163.796C400.632 166.385 395.122 171.054 390.71 174.655C390.032 175.209 389.021 174.682 389.083 173.809L390.057 160.101L391.194 145.323C393.801 145.323 398.587 146.801 401.429 152.712C401.808 155.586 402.338 160.84 401.429 163.796Z" fill="#F6B2A2"/>
<path d="M204.694 309.116L268.377 267.243C253.821 258.376 254.731 240.56 257.005 232.761C257.763 228.245 261.781 215.52 271.789 200.741C281.796 185.963 291.879 181.448 295.67 181.037L319.551 183.5L329.785 213.057C354.804 238.918 349.118 227.835 374.136 232.761L387.782 217.983V237.688L407.114 227.835C402.945 233.171 397.789 243.845 410.526 243.845C423.263 243.845 429.479 246.308 430.995 247.539L454.876 291.873L482.169 336.208C487.097 331.282 496.953 321.184 496.953 320.198C496.953 318.967 501.501 293.105 503.776 269.706C505.595 250.987 504.155 230.708 506.05 227.835C524.245 218.968 528.794 217.162 527.657 222.909C546.989 229.066 543.303 230.462 561.772 233.992C581.105 237.688 583.379 247.54 587.928 259.855C592.477 272.17 567.458 290.643 548.126 309.116C532.66 323.894 530.31 353.861 531.068 366.997C525.761 380.133 511.509 408.376 496.953 416.258C478.757 426.11 474.209 419.952 459.425 416.258C453.901 414.877 449.484 407.351 446.153 398.174L468.523 495.074H399.154V471.676H295.67V309.116H284.298H204.694Z" fill="#FFCB11"/>
<path d="M377.547 232.762V188.428C378.685 174.881 370.724 185.964 341.157 197.047L342.294 232.762H377.547Z" fill="#F6B2A2"/>
<path d="M256.295 250.002C251.746 227.342 264.587 212.646 268.377 208.131C275.655 242.613 281.692 250.413 286.999 250.002H326.801L292.686 267.244C285.647 269.784 273.941 271.393 265.393 264.781C261.511 261.778 257.716 257.079 256.295 250.002Z" fill="#4A3F01" fill-opacity="0.28"/>
<path d="M460.5 416.5C451.5 414 447.5 402.5 446 397L451.5 399L462.5 402L459.5 403.5L460.5 407C457.3 410.6 459.167 414.833 460.5 416.5Z" fill="#4A3F01" fill-opacity="0.28"/>
<path d="M402.566 467.98H301.124H275.2V495.074H402.566V467.98Z" fill="url(#paint0_linear_135_127)"/>
<path d="M297.767 302.957H43.3901C39.5241 302.957 36.3901 306.091 36.3901 309.957V488.073C36.3901 491.939 39.5241 495.073 43.3901 495.073H297.767C301.633 495.073 304.767 491.939 304.767 488.073V309.957C304.767 306.091 301.633 302.957 297.767 302.957Z" fill="url(#paint1_linear_135_127)"/>
<path d="M319.551 169.954L320.688 152.712C331.605 143.845 338.125 146.555 340.02 149.018V128.082L349.118 140.397L361.627 135.471L382.096 149.018L378.685 179.806L377.548 184.732C377.548 184.732 356.699 206.899 349.118 209.362C344.569 211.004 335.017 209.608 333.197 205.667C331.378 201.727 322.962 178.164 319.551 169.954Z" fill="#C3844A" fill-opacity="0.64"/>
<path d="M319.551 167.491V144.092C330.468 135.225 336.988 137.935 338.883 140.398V119.462L347.981 131.777L360.49 126.851L383.233 140.398L379.822 174.88C378.685 179.806 378.912 183.008 375.273 185.964C371.634 188.919 355.562 198.279 347.981 200.742C343.432 202.384 333.879 200.988 332.06 197.047C330.24 193.107 322.962 175.701 319.551 167.491Z" fill="#F6B2A2"/>
<path d="M352.529 110.941C362.537 110.941 383.233 105.896 392.331 103.433C388.919 72.6452 372.999 54.2626 352.529 51.8285C341.157 50.4762 320.688 72.6442 315.002 91.1169C322.962 97.155 328.648 100.85 333.197 103.433C338.233 106.292 340.02 110.941 352.529 110.941Z" fill="#985741"/>
<path d="M354.804 137.934H367.085L375.273 142.86" stroke="#321901" stroke-width="2"/>
<ellipse cx="361.627" cy="182.268" rx="4.54877" ry="4.92606" fill="#161F20"/>
<path d="M399.154 126.849C397.53 114.534 390.815 90.3145 388.92 78.8203C397.638 92.7775 412.874 116.184 404.84 137.933C400.634 149.321 400.317 140.702 399.394 129.602C399.319 128.698 399.24 127.777 399.154 126.849Z" fill="url(#paint2_linear_135_127)"/>
<path d="M399.154 126.849C397.53 114.534 390.815 90.3145 388.92 78.8203C397.638 92.7775 412.874 116.184 404.84 137.933C400.291 150.248 400.291 139.165 399.154 126.849ZM399.154 126.849C401.05 141.217 393.923 173.154 363.901 181.036" stroke="#161F20" stroke-width="2"/>
<path d="M338.521 150.248C339.279 154.764 338.749 163.056 335.11 169.952C331.471 176.849 341.554 174.468 346.481 171.184" stroke="#FFA792"/>
<path d="M341.157 137.933H328.876L320.688 142.859" stroke="#321901" stroke-width="2"/>
<path d="M403.702 102.221C400.973 96.3097 394.226 83.7483 391.193 78.8222C393.468 77.5895 394.605 73.896 399.154 73.8955C403.842 73.895 412.8 97.2949 413.937 99.7579C414.847 101.728 410.526 109.199 407.114 110.841C407.493 110.02 406.432 108.132 403.702 102.221Z" fill="#321901"/>
<path d="M551.538 219.214C540.396 213.046 538.279 221.44 539.967 226.58L544.716 231.527L575.42 238.916C573.145 233.993 562.681 225.382 551.538 219.214Z" fill="#E65232"/>
<path d="M541.769 92.7402L546.318 75.499C558.827 70.573 566.788 75.499 573.611 80.4251C579.069 84.3659 573.611 90.2772 570.199 92.7402C569.062 93.9717 564.513 96.6811 555.416 97.6663C546.318 98.6515 542.528 94.7928 541.769 92.7402Z" fill="#321901"/>
<path d="M550.867 29.9322C550.867 25.0061 541.011 27.8797 536.084 29.9322C530.398 17.6166 550.867 18.849 556.553 21.3121C561.102 23.2825 562.997 31.9852 563.376 36.0902C560.723 38.9638 554.506 44.7109 550.867 44.7109C547.228 44.7109 549.351 34.8584 550.867 29.9322Z" fill="#321901"/>
<path d="M494.007 48.4052C491.278 46.4347 476.949 50.8682 473.537 50.8682C470.808 55.7941 480.74 61.9517 486.047 64.4149C490.595 67.3705 498.556 61.5413 501.967 58.2573C509.928 54.5627 497.419 50.8682 494.007 48.4052Z" fill="#321901"/>
<path d="M617.961 66.8782C617.051 63.9226 606.21 64.0047 600.903 64.4152C595.217 64.6233 595.217 53.3316 597.491 48.4065C599.766 43.4814 605.452 49.638 613.412 48.4065C621.372 47.175 623.647 52.1011 627.058 59.4901C629.787 65.4014 625.921 70.1633 623.647 71.8053C619.098 73.0368 619.098 70.5728 617.961 66.8782Z" fill="#321901"/>
<path d="M613.412 122.296C607.044 121.311 602.419 129.275 600.903 133.38C596.355 133.38 600.903 138.306 607.725 139.538C613.183 140.523 619.097 135.843 621.372 133.38C624.783 125.991 621.372 123.528 613.412 122.296Z" fill="#321901"/>
<path d="M545.18 124.759C537.902 121.803 533.05 125.99 531.534 128.453C533.05 130.096 537.902 133.38 545.18 133.38C554.278 133.38 545.18 139.538 552.003 138.306C558.826 137.075 554.278 128.453 545.18 124.759Z" fill="#321901"/>
<path d="M552.003 165.4C543.815 157.518 537.978 164.579 536.082 169.094C536.082 170.736 531.079 171.557 538.357 171.557C545.635 171.557 545.18 177.715 545.18 182.641C550.866 180.178 560.191 173.281 552.003 165.4Z" fill="#321901"/>
<path d="M574.747 169.094H598.628C598.628 155.548 596.354 150.621 589.53 149.39C584.072 148.405 575.884 155.548 574.747 169.094Z" fill="#321901"/>
<ellipse cx="489.458" cy="97.6657" rx="11.3719" ry="12.3152" fill="#321901"/>
<path d="M521.299 160.474C515.613 170.326 514.171 178.946 505.378 178.946C496.585 178.946 489.458 170.676 489.458 160.474C494.006 153.085 496.585 142.001 505.378 142.001C514.171 142.001 521.299 150.272 521.299 160.474Z" fill="#321901"/>
<defs>
<linearGradient id="paint0_linear_135_127" x1="271.64" y1="467.286" x2="334.197" y2="548.317" gradientUnits="userSpaceOnUse">
<stop stop-color="#2B3B3D"/>
<stop offset="0.525166" stop-color="#364E7C"/>
<stop offset="1" stop-color="#161F20"/>
</linearGradient>
<linearGradient id="paint1_linear_135_127" x1="28.8889" y1="298.031" x2="336.323" y2="416.369" gradientUnits="userSpaceOnUse">
<stop stop-color="#2B3B3D"/>
<stop offset="0.525166" stop-color="#364E7C"/>
<stop offset="1" stop-color="#161F20"/>
</linearGradient>
<linearGradient id="paint2_linear_135_127" x1="421.898" y1="91.1355" x2="368.384" y2="172.318" gradientUnits="userSpaceOnUse">
<stop stop-color="#102224"/>
<stop offset="0.526621" stop-color="#192223"/>
<stop offset="1" stop-color="#020A0B"/>
</linearGradient>
</defs>
</svg>
