<svg width="650" height="503" viewBox="0 0 650 503" fill="none" xmlns="http://www.w3.org/2000/svg">
<path d="M545.852 200.008L545.846 200.061C548.693 200.266 566.85 201.069 576.556 202.471C577.466 209.367 573.145 229.564 570.87 235.722C569.051 232.766 551.159 222.586 543.578 218.48L545.846 200.061C545.357 200.025 545.319 200.008 545.852 200.008Z" fill="#F6B2A2"/>
<path d="M486.718 500.5H0" stroke="#272525" stroke-width="4"/>
<path d="M423.036 131.047H304.768V246.809H423.036V131.047Z" fill="#321901"/>
<path d="M288.847 187.693L319.945 186.462L312.728 170.452C312.728 165.526 311.819 157.398 312.728 149.516C313.866 139.664 339.628 138.433 339.628 142.127V121.191L351 137.201L362.372 132.275L387.39 147.053L383.978 172.915L387.39 183.999L389.664 165.526L391.939 147.053L400.292 154.442C402.188 155.674 401.202 158.137 400.292 167.989C399.155 180.304 397.625 177.841 397.625 183.999C397.625 190.156 395.35 195.082 391.939 202.471C389.209 208.383 385.495 222.997 383.978 229.565L395.35 218.481C391.939 227.102 390.802 240.648 395.35 239.417C399.899 238.185 404.448 232.028 412.408 229.565C420.368 227.102 410.134 234.491 416.957 240.648C423.78 246.806 422.643 248.037 434.015 248.037C445.387 248.037 448.798 239.417 460.17 218.481C471.542 197.545 468.131 191.388 464.719 180.304C461.307 169.22 452.21 170.452 439.701 159.368C427.192 148.285 430.603 139.664 427.192 102.719C424.462 73.1624 407.101 69.8783 398.762 71.9309C395.35 76.0359 387.845 83.2608 385.116 79.32C376.018 58.6305 360.855 52.6371 354.411 52.2266C323.48 55.1823 305.891 107.645 300.963 133.507C294.595 141.388 287.71 170.452 288.847 187.693Z" fill="#854E39"/>
<path d="M424.186 185.148L396.881 182.769L399.18 171.685V169.258C403.823 165.577 394.607 148.286 399.18 135.894C401.434 138.129 411.903 151.702 412.803 148.286C413.702 144.87 419.625 138.434 417.351 135.893C420.946 135.938 425.812 133.508 427.585 133.508C430.128 133.508 426.442 141.861 430.997 153.212C434.64 162.294 445.78 164.296 450.953 170.682L421.061 174.593L424.186 185.148Z" fill="#321901"/>
<path d="M401.429 164.293C400.632 166.882 395.122 171.551 390.71 175.152C390.032 175.706 389.021 175.179 389.083 174.306L390.057 160.598L391.194 145.82C393.801 145.82 398.587 147.298 401.429 153.209C401.808 156.083 402.338 161.337 401.429 164.293Z" fill="#F6B2A2"/>
<path d="M204.693 309.618L268.376 267.745C253.82 258.878 254.73 241.062 257.004 233.263C257.762 228.747 261.78 216.022 271.788 201.243C281.795 186.465 291.878 181.95 295.669 181.539L319.55 184.002L329.784 213.559C354.803 239.42 349.117 228.337 374.135 233.263L387.781 218.485V238.19L407.113 228.337C402.944 233.673 397.788 244.347 410.525 244.347C423.262 244.347 429.478 246.81 430.994 248.041L454.875 292.375L482.168 336.71C487.096 331.784 496.952 321.686 496.952 320.7C496.952 319.469 501.5 293.607 503.775 270.208C505.594 251.489 504.154 231.21 506.049 228.337C524.244 219.47 528.793 217.664 527.656 223.411C546.988 229.568 543.302 230.964 561.771 234.494C581.104 238.19 583.378 248.042 587.927 260.357C592.476 272.672 567.457 291.145 548.125 309.618C532.659 324.396 530.309 354.363 531.067 367.499C525.76 380.635 511.508 408.878 496.952 416.76C478.756 426.612 474.208 420.454 459.424 416.76C453.9 415.379 449.483 407.853 446.152 398.676L468.522 495.576H399.153V472.178H295.669V309.618H284.297H204.693Z" fill="#FFCB11"/>
<path d="M377.546 233.264V188.93C378.684 175.383 370.723 186.466 341.156 197.549L342.293 233.264H377.546Z" fill="#F6B2A2"/>
<path d="M256.295 250.504C251.746 227.844 264.587 213.148 268.377 208.633C275.655 243.115 281.692 250.915 286.999 250.504H326.801L292.686 267.746C285.647 270.286 273.941 271.895 265.393 265.283C261.511 262.28 257.716 257.581 256.295 250.504Z" fill="#4A3F01" fill-opacity="0.28"/>
<path d="M460.5 417C451.5 414.5 447.5 403 446 397.5L451.5 399.5L462.5 402.5L459.5 404L460.5 407.5C457.3 411.1 459.167 415.333 460.5 417Z" fill="#4A3F01" fill-opacity="0.28"/>
<path d="M402.565 468.477H301.123H275.199V495.571H402.565V468.477Z" fill="url(#paint0_linear_562_10252)"/>
<path d="M297.768 303.453H43.3906C39.5246 303.453 36.3906 306.587 36.3906 310.453V488.569C36.3906 492.435 39.5246 495.569 43.3906 495.569H297.768C301.634 495.569 304.768 492.435 304.768 488.569V310.453C304.768 306.587 301.634 303.453 297.768 303.453Z" fill="url(#paint1_linear_562_10252)"/>
<path d="M319.551 170.45L320.688 153.208C331.605 144.341 338.125 147.051 340.02 149.514V128.578L349.118 140.893L361.627 135.967L382.096 149.514L378.685 180.302L377.548 185.228C377.548 185.228 356.699 207.395 349.118 209.858C344.569 211.5 335.017 210.104 333.197 206.163C331.378 202.223 322.962 178.66 319.551 170.45Z" fill="#C3844A" fill-opacity="0.64"/>
<path d="M319.551 167.99V144.591C330.468 135.724 336.988 138.434 338.883 140.897V119.961L347.981 132.276L360.49 127.35L383.233 140.897L379.822 175.379C378.685 180.305 378.912 183.507 375.273 186.463C371.634 189.418 355.562 198.778 347.981 201.241C343.432 202.883 333.879 201.487 332.06 197.546C330.24 193.606 322.962 176.2 319.551 167.99Z" fill="#F6B2A2"/>
<path d="M352.529 111.437C362.537 111.437 383.233 106.392 392.331 103.929C388.919 73.1413 372.999 54.7587 352.529 52.3246C341.157 50.9723 320.688 73.1403 315.002 91.613C322.962 97.6511 328.648 101.346 333.197 103.929C338.233 106.788 340.02 111.437 352.529 111.437Z" fill="#985741"/>
<path d="M354.805 138.438H367.086L375.274 143.363" stroke="#321901" stroke-width="2"/>
<path d="M361.627 187.696C364.139 187.696 366.176 185.49 366.176 182.77C366.176 180.049 364.139 177.844 361.627 177.844C359.115 177.844 357.078 180.049 357.078 182.77C357.078 185.49 359.115 187.696 361.627 187.696Z" fill="#161F20"/>
<path d="M399.154 127.349C397.53 115.034 390.815 90.8145 388.92 79.3203C397.638 93.2775 412.874 116.684 404.84 138.433C400.634 149.821 400.317 141.202 399.394 130.102C399.319 129.198 399.24 128.277 399.154 127.349Z" fill="url(#paint2_linear_562_10252)"/>
<path d="M399.153 127.349C397.529 115.034 390.814 90.8145 388.919 79.3203C397.637 93.2775 412.873 116.684 404.839 138.433C400.29 150.748 400.29 139.665 399.153 127.349ZM399.153 127.349C401.049 141.717 393.922 173.654 363.9 181.536" stroke="#161F20" stroke-width="2"/>
<path d="M338.52 150.75C339.278 155.266 338.748 163.558 335.109 170.454C331.47 177.351 341.553 174.97 346.48 171.686" stroke="#FFA792"/>
<path d="M341.157 138.43H328.876L320.688 143.356" stroke="#321901" stroke-width="2"/>
<path d="M403.702 102.724C400.973 96.8126 394.226 84.2512 391.193 79.3251C393.468 78.0924 394.605 74.3989 399.154 74.3984C403.842 74.3979 412.8 97.7978 413.937 100.261C414.847 102.231 410.526 109.702 407.114 111.344C407.493 110.523 406.432 108.635 403.702 102.724Z" fill="#321901"/>
<path d="M551.539 219.713C540.397 213.545 538.28 221.939 539.968 227.079L544.717 232.026L575.421 239.415C573.146 234.492 562.682 225.881 551.539 219.713Z" fill="#E65232"/>
<path d="M552.004 165.902C543.816 158.02 537.979 165.081 536.083 169.596C536.083 171.238 531.08 172.059 538.358 172.059C545.636 172.059 545.181 178.217 545.181 183.143C550.867 180.68 560.192 173.783 552.004 165.902Z" fill="#321901"/>
<path d="M574.746 169.591H598.627C598.627 156.045 596.353 151.118 589.529 149.887C584.071 148.902 575.883 156.045 574.746 169.591Z" fill="#321901"/>
<path d="M550.867 30.4303C550.867 25.5042 541.011 28.3778 536.084 30.4303C530.398 18.1146 550.867 19.3471 556.553 21.8102C561.102 23.7806 562.997 32.4832 563.375 36.5882C560.722 39.4618 554.506 45.209 550.867 45.209C547.228 45.209 549.351 35.3565 550.867 30.4303Z" fill="#321901"/>
<path d="M490.33 33.7573C503.066 28.8313 508.524 -0.725124 522.171 10.3585C591.312 4.44728 621.486 31.7048 627.929 46.0725C658.861 55.9246 649.157 89.586 640.438 105.185C630.204 128.584 651.81 124.889 640.438 158.14C629.067 191.391 605.186 177.845 589.265 192.623C573.344 207.401 561.972 212.327 539.228 201.243C516.485 190.16 490.33 211.095 490.33 201.243C490.33 191.391 473.272 163.066 460.763 144.594C450.755 129.815 449.77 105.596 450.528 95.3331C457.806 81.5401 460.384 61.6717 460.763 53.4616C465.311 48.946 477.593 38.6834 490.33 33.7573Z" fill="#F79E4D"/>
<path d="M491.258 26.3667C503.995 21.4406 509.453 -8.11575 523.099 2.96789C592.241 -2.94334 622.414 24.3142 628.858 38.6818C659.789 48.534 650.085 82.1954 641.367 97.7946C631.132 121.193 652.739 117.499 641.367 150.75C629.995 184.001 599.3 160.602 583.379 175.38C567.458 190.158 561.773 176.611 539.029 165.528C516.285 154.444 498.081 185.232 498.081 175.38C498.081 165.528 490.129 138.435 477.62 119.962C467.613 105.184 450.698 98.2051 451.456 87.9424C458.734 74.1495 461.312 54.281 461.691 46.0709C466.24 41.5554 478.521 31.2927 491.258 26.3667Z" fill="#FFBC7C"/>
<path d="M463.02 48.5378C467.568 44.0223 479.85 33.7596 492.587 28.8336L509.444 18.9766C507.17 23.4954 503.303 35.7339 506.033 48.5378C519.3 64.9564 545.834 100.257 545.834 110.109C545.834 122.424 544.697 131.044 560.618 131.044C576.539 131.044 583.362 122.419 601.557 131.044C611.167 134.739 632.848 139.911 642.696 131.044V153.217C617.495 180.305 599.3 171.684 583.379 186.463C567.458 201.241 564.047 191.389 541.303 180.305C518.559 169.221 502.053 181.784 498.09 172.916C492.587 160.601 491.265 149.517 478.756 131.044C468.749 116.266 450.689 98.2041 451.447 87.9415C458.725 74.1485 462.641 56.7479 463.02 48.5378Z" fill="#F8AF66"/>
<path d="M541.77 93.2425L546.319 76.0014C558.828 71.0754 566.789 76.0014 573.612 80.9275C579.07 84.8683 573.612 90.7795 570.2 93.2425C569.063 94.474 564.514 97.1834 555.417 98.1686C546.319 99.1538 542.529 95.2951 541.77 93.2425Z" fill="#321901"/>
<path d="M494.008 48.9033C491.279 46.9328 476.95 51.3663 473.538 51.3663C470.809 56.2922 480.741 62.4498 486.048 64.913C490.596 67.8686 498.557 62.0394 501.968 58.7554C509.929 55.0608 497.42 51.3663 494.008 48.9033Z" fill="#321901"/>
<path d="M617.961 67.3802C617.051 64.4246 606.21 64.5067 600.903 64.9172C595.217 65.1253 595.217 53.8336 597.491 48.9085C599.766 43.9834 605.452 50.14 613.412 48.9085C621.372 47.677 623.647 52.6031 627.058 59.9921C629.787 65.9034 625.921 70.6653 623.647 72.3073C619.098 73.5388 619.098 71.0748 617.961 67.3802Z" fill="#321901"/>
<path d="M613.412 122.795C607.044 121.81 602.419 129.774 600.903 133.879C596.355 133.879 600.903 138.805 607.725 140.037C613.183 141.022 619.097 136.342 621.372 133.879C624.783 126.49 621.372 124.027 613.412 122.795Z" fill="#321901"/>
<path d="M545.179 125.259C537.901 122.303 533.049 126.49 531.533 128.953C533.049 130.596 537.901 133.88 545.179 133.88C554.277 133.88 545.179 140.038 552.002 138.806C558.825 137.575 554.277 128.953 545.179 125.259Z" fill="#321901"/>
<path d="M489.458 110.482C495.738 110.482 500.83 104.968 500.83 98.1668C500.83 91.3653 495.738 85.8516 489.458 85.8516C483.177 85.8516 478.086 91.3653 478.086 98.1668C478.086 104.968 483.177 110.482 489.458 110.482Z" fill="#321901"/>
<path d="M521.298 160.973C515.612 170.825 514.17 179.445 505.377 179.445C496.584 179.445 489.457 171.175 489.457 160.973C494.005 153.584 496.584 142.5 505.377 142.5C514.17 142.5 521.298 150.771 521.298 160.973Z" fill="#321901"/>
<g clip-path="url(#clip0_562_10252)">
<mask id="mask0_562_10252" style="mask-type:luminance" maskUnits="userSpaceOnUse" x="151" y="380" width="40" height="40">
<path d="M191 380H151V420H191V380Z" fill="white"/>
</mask>
<g mask="url(#mask0_562_10252)">
<path d="M186 380H156C153.239 380 151 382.239 151 385V415C151 417.761 153.239 420 156 420H186C188.761 420 191 417.761 191 415V385C191 382.239 188.761 380 186 380Z" fill="black"/>
<path d="M171.91 391.648C171.07 391.648 170.3 391.858 169.6 392.278C168.9 392.678 168.29 393.258 167.77 394.018C167.27 394.778 166.88 395.698 166.6 396.778C166.34 397.838 166.21 399.028 166.21 400.348C166.21 401.708 166.35 402.928 166.63 404.008C166.91 405.068 167.3 405.978 167.8 406.738C168.32 407.498 168.96 408.078 169.72 408.478C170.48 408.858 171.34 409.048 172.3 409.048C173.34 409.048 174.25 408.798 175.03 408.298C175.83 407.798 176.5 407.108 177.04 406.228C177.58 405.328 177.97 404.308 178.21 403.168L180.25 403.978C179.93 405.398 179.4 406.668 178.66 407.788C177.92 408.888 176.97 409.748 175.81 410.368C174.67 410.988 173.31 411.298 171.73 411.298C170.19 411.298 168.77 411.038 167.47 410.518C166.19 409.978 165.08 409.228 164.14 408.268C163.2 407.288 162.47 406.128 161.95 404.788C161.43 403.448 161.17 401.968 161.17 400.348C161.17 398.728 161.44 397.248 161.98 395.908C162.52 394.568 163.26 393.418 164.2 392.458C165.14 391.478 166.22 390.728 167.44 390.208C168.68 389.668 170 389.398 171.4 389.398C172.8 389.398 173.97 389.628 174.91 390.088C175.85 390.548 176.61 391.188 177.19 392.008C177.79 392.808 178.26 393.748 178.6 394.828L177.19 394.618L177.73 389.698H179.89V396.328H177.4C177.1 395.368 176.71 394.548 176.23 393.868C175.75 393.168 175.16 392.628 174.46 392.248C173.76 391.848 172.91 391.648 171.91 391.648Z" fill="white"/>
</g>
</g>
<defs>
<linearGradient id="paint0_linear_562_10252" x1="271.639" y1="467.783" x2="334.196" y2="548.814" gradientUnits="userSpaceOnUse">
<stop stop-color="#0081E1"/>
<stop offset="0.525166" stop-color="#4399B4"/>
<stop offset="1" stop-color="#A9DAFF"/>
</linearGradient>
<linearGradient id="paint1_linear_562_10252" x1="28.8894" y1="298.527" x2="336.324" y2="416.865" gradientUnits="userSpaceOnUse">
<stop stop-color="#0081E1"/>
<stop offset="0.187837" stop-color="#4399B4"/>
<stop offset="0.502222" stop-color="#8CDDF6" stop-opacity="0.95"/>
<stop offset="0.706223" stop-color="#64BEDA" stop-opacity="0.95"/>
<stop offset="1" stop-color="#0996FF"/>
</linearGradient>
<linearGradient id="paint2_linear_562_10252" x1="421.898" y1="91.6355" x2="368.384" y2="172.818" gradientUnits="userSpaceOnUse">
<stop stop-color="#102224"/>
<stop offset="0.526621" stop-color="#192223"/>
<stop offset="1" stop-color="#020A0B"/>
</linearGradient>
<clipPath id="clip0_562_10252">
<rect width="40" height="40" fill="white" transform="translate(151 380)"/>
</clipPath>
</defs>
</svg>
