<svg width="65" height="53" viewBox="0 0 65 53" fill="none" xmlns="http://www.w3.org/2000/svg">
<path d="M22.3377 11.3823C14.0536 7.62927 11.1261 14.1569 10.8925 17.2844C7.64843 18.0158 1.64294 20.3107 2.01666 28.4829C2.39038 36.655 9.12774 38.8994 12.4497 39H36.7416H50.3668C67.8071 39 66.25 18.2677 51.4568 18.2677C51.4568 8.65779 45.0724 2.00005 36.7416 2C27.165 2 24.2524 8.53655 22.3377 11.3823Z" fill="url(#paint0_linear_143_685)" stroke="url(#paint1_linear_143_685)" stroke-width="3"/>
<path d="M47.979 40.8253L48.3115 36.2215L46.7932 36.0796L43.5599 34.2156C42.1459 34.1106 41.0453 35.4181 40.6717 36.0849L37.9127 36.3704C36.4541 35.5267 33.4464 33.9429 33.0843 34.3573C32.7223 34.7717 29.1399 35.7601 27.394 36.2025C26.3737 35.5752 23.777 34.0955 21.5525 33.195C19.328 32.2944 16.9614 33.3036 16.0561 33.9208L16.5952 37.7912C17.0049 40.7326 19.7857 44.371 21.23 45.9491C22.6742 47.5271 28.0415 49.6415 30.391 50.1836C32.7404 50.7257 38.0644 50.0177 39.099 49.9106C39.9267 49.825 43.8552 46.3822 45.716 44.6716L47.979 40.8253Z" fill="url(#paint2_radial_143_685)"/>
<path d="M34.9889 42.3021C34.9503 43.0349 35.5786 42.7472 35.8975 42.5117C36.1287 42.4878 36.6091 42.3166 36.6811 41.8234C36.7531 41.3301 36.0497 41.079 35.6891 41.0151C35.4718 41.1388 35.0276 41.5694 34.9889 42.3021Z" fill="#994B03"/>
<path d="M36.592 46.2354L36.9805 46.4989L37.1747 46.6306L37.5006 46.4451L37.2648 46.014L36.7237 45.9182L36.592 46.2354Z" fill="#994B03"/>
<path d="M25.5247 42.4956C26.157 42.9858 26.297 42.3839 26.288 42.0216C26.4129 41.8521 26.5637 41.4228 26.1672 41.0621C25.7706 40.7014 25.1001 41.0119 24.8144 41.2123C24.7877 41.4358 24.8923 42.0054 25.5247 42.4956Z" fill="#994B03"/>
<path d="M33.2648 46.4281C33.3034 45.6954 32.046 44.8336 31.4125 44.4943L30.608 45.033C30.4463 45.5558 30.2131 46.7439 30.5739 47.3139C30.9347 47.8838 31.8619 48.1422 32.2803 48.2001C32.5924 47.9147 33.2261 47.1609 33.2648 46.4281Z" fill="#994B03"/>
<path d="M29.5392 42.4108C30.3158 41.6726 31.5014 40.0823 29.3374 39.6989C27.1734 39.3156 28.7349 42.9495 29.5392 42.4108Z" fill="#994B03"/>
<ellipse cx="1.2089" cy="0.871538" rx="1.2089" ry="0.871538" transform="matrix(-0.137954 -0.990422 -0.994701 0.102934 40.6328 43.6924)" fill="#994B03"/>
<path d="M41.8449 35.9756C41.6676 36.7227 41.0175 36.7697 40.7146 36.6999C40.5898 37.067 40.5776 37.9893 41.5265 38.7413C42.4755 39.4933 43.4525 39.0987 43.8223 38.8074C44.4602 38.3365 45.6639 37.129 45.3751 36.0657C45.0863 35.0025 43.8582 34.8563 43.2803 34.9161C42.8757 34.958 42.0223 35.2285 41.8449 35.9756Z" fill="#994B03"/>
<path d="M43.7817 38.5076C43.8088 38.5048 43.8265 38.495 43.8371 38.479C44.4897 38.1251 45.3384 37.056 45.2238 36.2328C45.1404 35.6342 44.4144 35.0514 44.1901 35.1252C44.1323 35.1312 44.6828 36.137 44.0726 36.8074C43.3688 37.5807 43.9391 38.3242 43.8371 38.479C43.8184 38.4891 43.8 38.4986 43.7817 38.5076Z" fill="white" fill-opacity="0.35"/>
<path d="M45.571 21.7389L47.0734 26.1429L45.6305 26.5974L42.9576 29.0829C41.6069 29.4798 40.2 28.439 39.6653 27.869L36.9043 28.167C35.6993 29.2909 33.1744 31.4571 32.7156 31.13C32.2568 30.8029 28.5137 30.5896 26.6995 30.5239C25.8661 31.3462 23.715 33.3255 21.7783 34.6645C19.8416 36.0034 17.2776 35.5164 16.2377 35.1056L15.7722 31.2325C15.4185 28.289 17.1963 24.1738 18.1995 22.3393C19.2026 20.5048 23.8904 17.331 26.0406 16.3142C28.1908 15.2975 33.5589 14.875 34.5943 14.7633C35.4226 14.6739 40.1311 17.1997 42.3818 18.4737L45.571 21.7389Z" fill="url(#paint3_radial_143_685)"/>
<path d="M32.5357 23.0126C32.3105 22.3087 32.9963 22.4571 33.3673 22.6194C33.5986 22.5944 34.1104 22.6605 34.3068 23.1248C34.5032 23.589 33.8823 23.9797 33.5473 24.117C33.3039 24.0422 32.7609 23.7165 32.5357 23.0126Z" fill="#994B03"/>
<path d="M33.0907 18.8564L33.4018 18.5194L33.5573 18.3509L33.9223 18.4632L33.8028 18.9313L33.3003 19.1372L33.0907 18.8564Z" fill="#994B03"/>
<path d="M23.2678 24.7982C23.7584 24.19 24.0489 24.7457 24.1328 25.0995C24.2979 25.2382 24.5547 25.6239 24.2607 26.0571C23.9667 26.4903 23.234 26.3284 22.9044 26.1933C22.8211 25.9817 22.7773 25.4064 23.2678 24.7982Z" fill="#994B03"/>
<path d="M29.8014 19.3636C30.0266 20.0675 29.0222 21.1671 28.4918 21.6289L27.5702 21.2732C27.2789 20.799 26.7476 19.6932 26.9532 19.0641C27.1588 18.4351 27.9959 17.9908 28.3888 17.8472C28.7658 18.0594 29.5762 18.6597 29.8014 19.3636Z" fill="#994B03"/>
<path d="M27.2002 24.044C28.1457 24.5993 29.7078 25.8973 27.6977 26.7211C25.6875 27.5449 26.2786 23.6883 27.2002 24.044Z" fill="#994B03"/>
<ellipse cx="1.20679" cy="0.872579" rx="1.20679" ry="0.872579" transform="matrix(0.11932 0.992841 -0.994239 0.107313 37.6816 20.4844)" fill="#994B03"/>
<path d="M40.8367 27.7299C40.4727 27.041 39.8273 27.1309 39.5501 27.2619C39.3346 26.9312 39.0865 26.0376 39.8186 25.109C40.5506 24.1804 41.6034 24.3601 42.0383 24.566C42.7803 24.8905 44.2621 25.8128 44.2529 26.9061C44.2437 27.9994 43.0847 28.3976 42.5063 28.46C42.1014 28.5037 41.2007 28.4188 40.8367 27.7299Z" fill="#994B03"/>
<path d="M42.0734 24.866C42.1005 24.8631 42.1203 24.8688 42.1346 24.8822C42.8611 25.0899 43.9616 25.9518 44.0606 26.7755C44.1326 27.3745 43.5744 28.0922 43.3371 28.0672C43.2792 28.0735 43.5581 26.9814 42.792 26.4573C41.9084 25.8527 42.2736 25.0113 42.1346 24.8822C42.1139 24.8762 42.0935 24.8708 42.0734 24.866Z" fill="white" fill-opacity="0.35"/>
<defs>
<linearGradient id="paint0_linear_143_685" x1="7" y1="2" x2="63" y2="51.5" gradientUnits="userSpaceOnUse">
<stop offset="0.113123" stop-color="#B3E9ED"/>
<stop offset="0.317708" stop-color="#DBF7F9"/>
<stop offset="0.479167" stop-color="#EAFCFD"/>
<stop offset="0.625" stop-color="#F1FEFF"/>
<stop offset="0.760417" stop-color="#E8FCFD"/>
<stop offset="0.869792" stop-color="#9FCDD3"/>
</linearGradient>
<linearGradient id="paint1_linear_143_685" x1="-3" y1="2" x2="72.5" y2="49.5" gradientUnits="userSpaceOnUse">
<stop stop-color="#93F3FA"/>
<stop offset="0.255208" stop-color="#81E5EC"/>
<stop offset="0.541667" stop-color="#50A5C0"/>
<stop offset="0.770833" stop-color="#7FD5DB"/>
<stop offset="0.989583" stop-color="#A6E4E8"/>
</linearGradient>
<radialGradient id="paint2_radial_143_685" cx="0" cy="0" r="1" gradientUnits="userSpaceOnUse" gradientTransform="translate(49.0822 47.524) rotate(-158.727) scale(32.7288 20.4335)">
<stop stop-color="#F7C25D"/>
<stop offset="0.496104" stop-color="#FFCA64"/>
<stop offset="0.959229" stop-color="#E8AB37"/>
</radialGradient>
<radialGradient id="paint3_radial_143_685" cx="0" cy="0" r="1" gradientUnits="userSpaceOnUse" gradientTransform="translate(44.9312 15.0001) rotate(146.138) scale(32.1223 20.8193)">
<stop stop-color="#F7C25D"/>
<stop offset="0.496104" stop-color="#FFCA64"/>
<stop offset="0.959229" stop-color="#E8AB37"/>
</radialGradient>
</defs>
</svg>
