<svg width="165" height="53" viewBox="0 0 165 53" fill="none" xmlns="http://www.w3.org/2000/svg">
<path d="M34.9909 42.3021C34.9522 43.0349 35.5805 42.7472 35.8995 42.5117C36.1307 42.4878 36.611 42.3166 36.683 41.8234C36.755 41.3301 36.0517 41.079 35.691 41.0151C35.4737 41.1388 35.0295 41.5694 34.9909 42.3021Z" fill="#994B03"/>
<path d="M36.594 46.2354L36.9824 46.4989L37.1767 46.6306L37.5026 46.4451L37.2667 46.014L36.7257 45.9182L36.594 46.2354Z" fill="#994B03"/>
<path d="M25.5266 42.4946C26.159 42.9848 26.299 42.3829 26.2899 42.0207C26.4149 41.8511 26.5657 41.4218 26.1691 41.0611C25.7726 40.7004 25.1021 41.011 24.8164 41.2113C24.7897 41.4348 24.8943 42.0044 25.5266 42.4946Z" fill="#994B03"/>
<path d="M33.2667 46.4272C33.3054 45.6944 32.048 44.8326 31.4144 44.4933L30.61 45.0321C30.4483 45.5549 30.2151 46.743 30.5759 47.3129C30.9367 47.8829 31.8638 48.1412 32.2823 48.1991C32.5943 47.9138 33.2281 47.1599 33.2667 46.4272Z" fill="#994B03"/>
<path d="M29.5412 42.4099C30.3178 41.6716 31.5033 40.0813 29.3393 39.698C27.1753 39.3146 28.7368 42.9486 29.5412 42.4099Z" fill="#994B03"/>
<ellipse cx="1.2089" cy="0.871538" rx="1.2089" ry="0.871538" transform="matrix(-0.137954 -0.990422 -0.994701 0.102934 40.6367 43.6914)" fill="#994B03"/>
<path d="M78.1357 29.4614H80.3257C80.2817 30.1792 80.084 30.8164 79.7324 31.373C79.3857 31.9297 78.8999 32.3643 78.2749 32.6768C77.6548 32.9893 76.9077 33.1455 76.0337 33.1455C75.3501 33.1455 74.7373 33.0283 74.1953 32.7939C73.6533 32.5547 73.1895 32.2129 72.8037 31.7686C72.4229 31.3242 72.1323 30.7871 71.9321 30.1572C71.7319 29.5273 71.6318 28.8218 71.6318 28.0405V27.3008C71.6318 26.5195 71.7344 25.814 71.9395 25.1841C72.1494 24.5493 72.4473 24.0098 72.833 23.5654C73.2236 23.1211 73.6899 22.7793 74.2319 22.54C74.7739 22.3008 75.3794 22.1812 76.0483 22.1812C76.937 22.1812 77.6865 22.3423 78.2969 22.6646C78.9121 22.9868 79.3882 23.4312 79.7251 23.9976C80.0669 24.564 80.272 25.2085 80.3403 25.9312H78.1431C78.1187 25.5015 78.0332 25.1377 77.8867 24.8398C77.7402 24.5371 77.5181 24.3101 77.2202 24.1587C76.9272 24.0024 76.5366 23.9243 76.0483 23.9243C75.6821 23.9243 75.3623 23.9927 75.0889 24.1294C74.8154 24.2661 74.5859 24.4736 74.4004 24.752C74.2148 25.0303 74.0757 25.3818 73.9829 25.8066C73.895 26.2266 73.8511 26.7197 73.8511 27.2861V28.0405C73.8511 28.5923 73.8926 29.0781 73.9756 29.498C74.0586 29.9131 74.1855 30.2646 74.3564 30.5527C74.5322 30.8359 74.7568 31.0508 75.0303 31.1973C75.3086 31.3389 75.6431 31.4097 76.0337 31.4097C76.4927 31.4097 76.8711 31.3364 77.1689 31.1899C77.4668 31.0435 77.6938 30.8262 77.8501 30.5381C78.0112 30.25 78.1064 29.8911 78.1357 29.4614ZM81.2998 29.1172V28.9634C81.2998 28.3823 81.3828 27.8477 81.5488 27.3594C81.7148 26.8662 81.9565 26.439 82.2739 26.0776C82.5913 25.7163 82.9819 25.4355 83.4458 25.2354C83.9097 25.0303 84.4419 24.9277 85.0425 24.9277C85.6431 24.9277 86.1777 25.0303 86.6465 25.2354C87.1152 25.4355 87.5083 25.7163 87.8257 26.0776C88.1479 26.439 88.3921 26.8662 88.5581 27.3594C88.7241 27.8477 88.8071 28.3823 88.8071 28.9634V29.1172C88.8071 29.6934 88.7241 30.228 88.5581 30.7212C88.3921 31.2095 88.1479 31.6367 87.8257 32.0029C87.5083 32.3643 87.1177 32.645 86.6538 32.8452C86.1899 33.0454 85.6577 33.1455 85.0571 33.1455C84.4565 33.1455 83.9219 33.0454 83.4531 32.8452C82.9893 32.645 82.5962 32.3643 82.2739 32.0029C81.9565 31.6367 81.7148 31.2095 81.5488 30.7212C81.3828 30.228 81.2998 29.6934 81.2998 29.1172ZM83.4092 28.9634V29.1172C83.4092 29.4492 83.4385 29.7593 83.4971 30.0474C83.5557 30.3354 83.6484 30.5894 83.7754 30.8091C83.9072 31.0239 84.0781 31.1924 84.2881 31.3145C84.498 31.4365 84.7544 31.4976 85.0571 31.4976C85.3501 31.4976 85.6016 31.4365 85.8115 31.3145C86.0215 31.1924 86.1899 31.0239 86.3169 30.8091C86.4438 30.5894 86.5366 30.3354 86.5952 30.0474C86.6587 29.7593 86.6904 29.4492 86.6904 29.1172V28.9634C86.6904 28.6411 86.6587 28.3384 86.5952 28.0552C86.5366 27.7671 86.4414 27.5132 86.3096 27.2935C86.1826 27.0688 86.0142 26.8931 85.8042 26.7661C85.5942 26.6392 85.3403 26.5757 85.0425 26.5757C84.7446 26.5757 84.4907 26.6392 84.2808 26.7661C84.0757 26.8931 83.9072 27.0688 83.7754 27.2935C83.6484 27.5132 83.5557 27.7671 83.4971 28.0552C83.4385 28.3384 83.4092 28.6411 83.4092 28.9634ZM89.7666 29.1172V28.9634C89.7666 28.3823 89.8496 27.8477 90.0156 27.3594C90.1816 26.8662 90.4233 26.439 90.7407 26.0776C91.0581 25.7163 91.4487 25.4355 91.9126 25.2354C92.3765 25.0303 92.9087 24.9277 93.5093 24.9277C94.1099 24.9277 94.6445 25.0303 95.1133 25.2354C95.582 25.4355 95.9751 25.7163 96.2925 26.0776C96.6147 26.439 96.8589 26.8662 97.0249 27.3594C97.1909 27.8477 97.2739 28.3823 97.2739 28.9634V29.1172C97.2739 29.6934 97.1909 30.228 97.0249 30.7212C96.8589 31.2095 96.6147 31.6367 96.2925 32.0029C95.9751 32.3643 95.5845 32.645 95.1206 32.8452C94.6567 33.0454 94.1245 33.1455 93.5239 33.1455C92.9233 33.1455 92.3887 33.0454 91.9199 32.8452C91.4561 32.645 91.063 32.3643 90.7407 32.0029C90.4233 31.6367 90.1816 31.2095 90.0156 30.7212C89.8496 30.228 89.7666 29.6934 89.7666 29.1172ZM91.876 28.9634V29.1172C91.876 29.4492 91.9053 29.7593 91.9639 30.0474C92.0225 30.3354 92.1152 30.5894 92.2422 30.8091C92.374 31.0239 92.5449 31.1924 92.7549 31.3145C92.9648 31.4365 93.2212 31.4976 93.5239 31.4976C93.8169 31.4976 94.0684 31.4365 94.2783 31.3145C94.4883 31.1924 94.6567 31.0239 94.7837 30.8091C94.9106 30.5894 95.0034 30.3354 95.062 30.0474C95.1255 29.7593 95.1572 29.4492 95.1572 29.1172V28.9634C95.1572 28.6411 95.1255 28.3384 95.062 28.0552C95.0034 27.7671 94.9082 27.5132 94.7764 27.2935C94.6494 27.0688 94.481 26.8931 94.271 26.7661C94.061 26.6392 93.8071 26.5757 93.5093 26.5757C93.2114 26.5757 92.9575 26.6392 92.7476 26.7661C92.5425 26.8931 92.374 27.0688 92.2422 27.2935C92.1152 27.5132 92.0225 27.7671 91.9639 28.0552C91.9053 28.3384 91.876 28.6411 91.876 28.9634ZM100.68 21.7417V32.999H98.5703V21.7417H100.68ZM105.675 25.0742L102.232 29L100.387 30.8677L99.6177 29.3442L101.083 27.4839L103.141 25.0742H105.675ZM103.485 32.999L101.141 29.3369L102.599 28.0625L105.917 32.999H103.485ZM108.81 25.0742V32.999H106.693V25.0742H108.81ZM106.561 23.0088C106.561 22.7012 106.668 22.4473 106.883 22.2471C107.098 22.0469 107.386 21.9468 107.748 21.9468C108.104 21.9468 108.39 22.0469 108.604 22.2471C108.824 22.4473 108.934 22.7012 108.934 23.0088C108.934 23.3164 108.824 23.5703 108.604 23.7705C108.39 23.9707 108.104 24.0708 107.748 24.0708C107.386 24.0708 107.098 23.9707 106.883 23.7705C106.668 23.5703 106.561 23.3164 106.561 23.0088ZM114.2 33.1455C113.585 33.1455 113.033 33.0479 112.545 32.8525C112.057 32.6523 111.642 32.3765 111.3 32.0249C110.963 31.6733 110.704 31.2656 110.523 30.8018C110.343 30.333 110.252 29.835 110.252 29.3076V29.0146C110.252 28.4141 110.338 27.8647 110.509 27.3667C110.68 26.8687 110.924 26.4365 111.241 26.0703C111.563 25.7041 111.954 25.4233 112.413 25.228C112.872 25.0278 113.39 24.9277 113.966 24.9277C114.527 24.9277 115.025 25.0205 115.46 25.2061C115.895 25.3916 116.258 25.6553 116.551 25.9971C116.849 26.3389 117.074 26.749 117.225 27.2275C117.376 27.7012 117.452 28.2285 117.452 28.8096V29.6885H111.153V28.2822H115.379V28.1211C115.379 27.8281 115.326 27.5669 115.218 27.3374C115.116 27.103 114.959 26.9175 114.75 26.7808C114.54 26.644 114.271 26.5757 113.944 26.5757C113.666 26.5757 113.426 26.6367 113.226 26.7588C113.026 26.8809 112.862 27.0518 112.735 27.2715C112.613 27.4912 112.521 27.75 112.457 28.0479C112.398 28.3408 112.369 28.6631 112.369 29.0146V29.3076C112.369 29.625 112.413 29.918 112.501 30.1865C112.594 30.4551 112.723 30.687 112.889 30.8823C113.06 31.0776 113.265 31.229 113.504 31.3364C113.749 31.4438 114.024 31.4976 114.332 31.4976C114.713 31.4976 115.067 31.4243 115.394 31.2778C115.726 31.1265 116.012 30.8994 116.251 30.5967L117.276 31.71C117.11 31.9492 116.883 32.1787 116.595 32.3984C116.312 32.6182 115.97 32.7988 115.57 32.9404C115.169 33.0771 114.713 33.1455 114.2 33.1455ZM126.366 30.7725L128.878 22.335H131.324L127.611 32.999H126L126.366 30.7725ZM124.051 22.335L126.556 30.7725L126.937 32.999H125.311L121.62 22.335H124.051ZM134.415 25.0742V32.999H132.298V25.0742H134.415ZM132.167 23.0088C132.167 22.7012 132.274 22.4473 132.489 22.2471C132.704 22.0469 132.992 21.9468 133.353 21.9468C133.709 21.9468 133.995 22.0469 134.21 22.2471C134.43 22.4473 134.54 22.7012 134.54 23.0088C134.54 23.3164 134.43 23.5703 134.21 23.7705C133.995 23.9707 133.709 24.0708 133.353 24.0708C132.992 24.0708 132.704 23.9707 132.489 23.7705C132.274 23.5703 132.167 23.3164 132.167 23.0088ZM140.443 30.8091C140.443 30.6577 140.399 30.521 140.311 30.3989C140.223 30.2769 140.06 30.1646 139.82 30.062C139.586 29.9546 139.247 29.8569 138.802 29.769C138.402 29.6812 138.028 29.5713 137.682 29.4395C137.34 29.3027 137.042 29.1392 136.788 28.9487C136.539 28.7583 136.344 28.5337 136.202 28.2749C136.061 28.0112 135.99 27.7109 135.99 27.374C135.99 27.042 136.061 26.7295 136.202 26.4365C136.349 26.1436 136.556 25.8848 136.825 25.6602C137.098 25.4307 137.43 25.2524 137.821 25.1255C138.216 24.9937 138.661 24.9277 139.154 24.9277C139.842 24.9277 140.433 25.0376 140.926 25.2573C141.424 25.4771 141.805 25.7798 142.069 26.1655C142.337 26.5464 142.472 26.981 142.472 27.4692H140.362C140.362 27.2642 140.318 27.0811 140.23 26.9199C140.147 26.7539 140.016 26.6245 139.835 26.5317C139.659 26.4341 139.43 26.3853 139.146 26.3853C138.912 26.3853 138.709 26.4268 138.539 26.5098C138.368 26.5879 138.236 26.6953 138.143 26.832C138.055 26.9639 138.011 27.1104 138.011 27.2715C138.011 27.3936 138.036 27.5034 138.084 27.6011C138.138 27.6938 138.224 27.7793 138.341 27.8574C138.458 27.9355 138.609 28.0088 138.795 28.0771C138.985 28.1406 139.22 28.1992 139.498 28.2529C140.069 28.3701 140.58 28.5239 141.029 28.7144C141.478 28.8999 141.834 29.1538 142.098 29.4761C142.362 29.7935 142.494 30.2109 142.494 30.7285C142.494 31.0801 142.416 31.4023 142.259 31.6953C142.103 31.9883 141.878 32.2446 141.585 32.4644C141.292 32.6792 140.941 32.8477 140.531 32.9697C140.125 33.0869 139.669 33.1455 139.161 33.1455C138.424 33.1455 137.799 33.0137 137.286 32.75C136.778 32.4863 136.393 32.1519 136.129 31.7466C135.87 31.3364 135.741 30.9165 135.741 30.4868H137.74C137.75 30.7749 137.823 31.0068 137.96 31.1826C138.102 31.3584 138.28 31.4854 138.495 31.5635C138.714 31.6416 138.951 31.6807 139.205 31.6807C139.479 31.6807 139.706 31.644 139.886 31.5708C140.067 31.4927 140.204 31.3901 140.296 31.2632C140.394 31.1313 140.443 30.98 140.443 30.8091ZM148.551 31.1021V25.0742H150.66V32.999H148.675L148.551 31.1021ZM148.785 29.4761L149.408 29.4614C149.408 29.9888 149.347 30.4795 149.225 30.9336C149.103 31.3828 148.919 31.7734 148.675 32.1055C148.431 32.4326 148.124 32.689 147.752 32.8745C147.381 33.0552 146.944 33.1455 146.441 33.1455C146.056 33.1455 145.699 33.0918 145.372 32.9844C145.05 32.8721 144.771 32.6987 144.537 32.4644C144.308 32.2251 144.127 31.9199 143.995 31.5488C143.868 31.1729 143.805 30.7212 143.805 30.1938V25.0742H145.914V30.2085C145.914 30.4429 145.941 30.6406 145.995 30.8018C146.053 30.9629 146.134 31.0947 146.236 31.1973C146.339 31.2998 146.458 31.373 146.595 31.417C146.737 31.4609 146.893 31.4829 147.064 31.4829C147.499 31.4829 147.84 31.395 148.089 31.2192C148.343 31.0435 148.521 30.8042 148.624 30.5015C148.731 30.1938 148.785 29.8521 148.785 29.4761ZM156.549 31.2119V27.6816C156.549 27.4277 156.507 27.2104 156.424 27.0298C156.341 26.8442 156.212 26.7002 156.036 26.5977C155.865 26.4951 155.643 26.4438 155.37 26.4438C155.135 26.4438 154.933 26.4854 154.762 26.5684C154.591 26.6465 154.459 26.7612 154.366 26.9126C154.273 27.0591 154.227 27.2324 154.227 27.4326H152.118C152.118 27.0957 152.196 26.7759 152.352 26.4731C152.508 26.1704 152.735 25.9043 153.033 25.6748C153.331 25.4404 153.685 25.2573 154.095 25.1255C154.51 24.9937 154.974 24.9277 155.487 24.9277C156.102 24.9277 156.649 25.0303 157.127 25.2354C157.606 25.4404 157.982 25.748 158.255 26.1582C158.534 26.5684 158.673 27.0811 158.673 27.6963V31.0874C158.673 31.522 158.7 31.8784 158.753 32.1567C158.807 32.4302 158.885 32.6694 158.988 32.8745V32.999H156.856C156.754 32.7842 156.676 32.5156 156.622 32.1934C156.573 31.8662 156.549 31.5391 156.549 31.2119ZM156.827 28.1724L156.842 29.3662H155.663C155.384 29.3662 155.143 29.3979 154.938 29.4614C154.732 29.5249 154.564 29.6152 154.432 29.7324C154.3 29.8447 154.203 29.9766 154.139 30.1279C154.081 30.2793 154.051 30.4453 154.051 30.626C154.051 30.8066 154.093 30.9702 154.176 31.1167C154.259 31.2583 154.378 31.3706 154.535 31.4536C154.691 31.5317 154.874 31.5708 155.084 31.5708C155.401 31.5708 155.677 31.5073 155.912 31.3804C156.146 31.2534 156.327 31.0972 156.454 30.9116C156.585 30.7261 156.654 30.5503 156.659 30.3843L157.215 31.2778C157.137 31.478 157.03 31.6855 156.893 31.9004C156.761 32.1152 156.593 32.3179 156.388 32.5083C156.183 32.6938 155.936 32.8477 155.648 32.9697C155.36 33.0869 155.018 33.1455 154.623 33.1455C154.12 33.1455 153.663 33.0454 153.253 32.8452C152.848 32.6401 152.525 32.3594 152.286 32.0029C152.052 31.6416 151.935 31.2314 151.935 30.7725C151.935 30.3574 152.013 29.9888 152.169 29.6665C152.325 29.3442 152.555 29.0732 152.857 28.8535C153.165 28.6289 153.548 28.4604 154.007 28.3481C154.466 28.231 154.999 28.1724 155.604 28.1724H156.827ZM162.525 21.749V32.999H160.409V21.749H162.525Z" fill="white"/>
<path d="M22.3397 11.3813C14.0555 7.6283 11.1281 14.1559 10.8945 17.2834C7.65038 18.0148 1.64489 20.3097 2.01861 28.4819C2.39233 36.6541 9.12969 38.8984 12.4517 38.999H36.7435H50.3688C67.8091 38.999 66.2519 18.2667 51.4588 18.2667C51.4588 8.65682 45.0744 1.99908 36.7435 1.99902C27.1669 1.99902 24.2543 8.53557 22.3397 11.3813Z" fill="url(#paint0_linear_147_760)" stroke="url(#paint1_linear_147_760)" stroke-width="3"/>
<path d="M47.981 40.8243L48.3135 36.2205L46.7952 36.0786L43.5619 34.2146C42.1479 34.1096 41.0472 35.4171 40.6737 36.0839L37.9147 36.3694C36.4561 35.5257 33.4484 33.942 33.0863 34.3563C32.7242 34.7707 29.1419 35.7591 27.396 36.2016C26.3757 35.5743 23.779 34.0945 21.5545 33.194C19.33 32.2935 16.9633 33.3027 16.0581 33.9198L16.5972 37.7902C17.0069 40.7317 19.7877 44.3701 21.2319 45.9481C22.6762 47.5262 28.0434 49.6405 30.3929 50.1826C32.7424 50.7247 38.0664 50.0167 39.101 49.9097C39.9287 49.824 43.8572 46.3813 45.718 44.6706L47.981 40.8243Z" fill="url(#paint2_radial_147_760)"/>
<path d="M41.8469 35.9746C41.6695 36.7217 41.0194 36.7688 40.7166 36.6989C40.5918 37.066 40.5795 37.9883 41.5285 38.7403C42.4775 39.4923 43.4544 39.0977 43.8243 38.8064C44.4622 38.3355 45.6659 37.128 45.3771 36.0648C45.0883 35.0015 43.8602 34.8553 43.2822 34.9151C42.8777 34.957 42.0242 35.2275 41.8469 35.9746Z" fill="#994B03"/>
<path d="M43.7836 38.5066C43.8107 38.5038 43.8285 38.4941 43.839 38.478C44.4917 38.1241 45.3404 37.055 45.2257 36.2318C45.1423 35.6332 44.4163 35.0504 44.1921 35.1242C44.1343 35.1302 44.6847 36.136 44.0746 36.8064C43.3707 37.5798 43.941 38.3232 43.839 38.478C43.8204 38.4882 43.8019 38.4977 43.7836 38.5066Z" fill="white" fill-opacity="0.35"/>
<path d="M45.573 21.738L47.0753 26.1419L45.6325 26.5964L42.9596 29.0819C41.6089 29.4788 40.2019 28.438 39.6673 27.868L36.9063 28.166C35.7012 29.29 33.1764 31.4561 32.7175 31.129C32.2587 30.8019 28.5157 30.5886 26.7015 30.5229C25.868 31.3452 23.717 33.3245 21.7803 34.6635C19.8436 36.0024 17.2796 35.5154 16.2397 35.1046L15.7742 31.2315C15.4204 28.288 17.1983 24.1728 18.2014 22.3383C19.2046 20.5038 23.8924 17.33 26.0426 16.3132C28.1928 15.2965 33.5608 14.874 34.5962 14.7623C35.4245 14.6729 40.133 17.1987 42.3838 18.4728L45.573 21.738Z" fill="url(#paint3_radial_147_760)"/>
<path d="M32.5377 23.0116C32.3125 22.3077 32.9982 22.4562 33.3692 22.6184C33.6006 22.5934 34.1124 22.6596 34.3088 23.1238C34.5052 23.5881 33.8842 23.9787 33.5492 24.1161C33.3059 24.0412 32.7629 23.7155 32.5377 23.0116Z" fill="#994B03"/>
<path d="M33.0927 18.8554L33.4037 18.5185L33.5592 18.35L33.9242 18.4623L33.8048 18.9303L33.3022 19.1363L33.0927 18.8554Z" fill="#994B03"/>
<path d="M23.2698 24.7973C23.7604 24.189 24.0508 24.7447 24.1347 25.0986C24.2999 25.2373 24.5566 25.6229 24.2626 26.0561C23.9686 26.4893 23.2359 26.3274 22.9063 26.1923C22.8231 25.9807 22.7792 25.4055 23.2698 24.7973Z" fill="#994B03"/>
<path d="M29.8034 19.3626C30.0286 20.0665 29.0242 21.1661 28.4938 21.6279L27.5722 21.2722C27.2808 20.798 26.7495 19.6922 26.9552 19.0632C27.1608 18.4341 27.9979 17.9898 28.3908 17.8462C28.7678 18.0584 29.5782 18.6587 29.8034 19.3626Z" fill="#994B03"/>
<path d="M27.2021 24.043C28.1477 24.5983 29.7097 25.8963 27.6996 26.7201C25.6895 27.5439 26.2806 23.6873 27.2021 24.043Z" fill="#994B03"/>
<ellipse cx="1.20679" cy="0.872579" rx="1.20679" ry="0.872579" transform="matrix(0.11932 0.992841 -0.994239 0.107313 37.6836 20.4834)" fill="#994B03"/>
<path d="M40.8386 27.7289C40.4746 27.04 39.8293 27.1299 39.5521 27.261C39.3365 26.9302 39.0885 26.0366 39.8205 25.1081C40.5526 24.1795 41.6054 24.3591 42.0403 24.565C42.7823 24.8895 44.2641 25.8118 44.2549 26.9051C44.2456 27.9984 43.0866 28.3966 42.5082 28.459C42.1034 28.5027 41.2027 28.4179 40.8386 27.7289Z" fill="#994B03"/>
<path d="M42.0753 24.865C42.1024 24.8621 42.1222 24.8678 42.1366 24.8812C42.863 25.089 43.9635 25.9508 44.0625 26.7745C44.1345 27.3736 43.5764 28.0912 43.339 28.0663C43.2812 28.0725 43.56 26.9804 42.7939 26.4563C41.9103 25.8517 42.2756 25.0104 42.1366 24.8812C42.1159 24.8753 42.0954 24.8699 42.0753 24.865Z" fill="white" fill-opacity="0.35"/>
<defs>
<linearGradient id="paint0_linear_147_760" x1="7.00195" y1="1.99902" x2="63.002" y2="51.499" gradientUnits="userSpaceOnUse">
<stop offset="0.113123" stop-color="#B3E9ED"/>
<stop offset="0.317708" stop-color="#DBF7F9"/>
<stop offset="0.479167" stop-color="#EAFCFD"/>
<stop offset="0.625" stop-color="#F1FEFF"/>
<stop offset="0.760417" stop-color="#E8FCFD"/>
<stop offset="0.869792" stop-color="#9FCDD3"/>
</linearGradient>
<linearGradient id="paint1_linear_147_760" x1="9.5" y1="5.99999" x2="67.5" y2="44" gradientUnits="userSpaceOnUse">
<stop stop-color="#93F3FA"/>
<stop offset="0.265625" stop-color="#81E5EC"/>
<stop offset="0.489583" stop-color="#50A5C0"/>
<stop offset="0.776042" stop-color="#7FD5DB"/>
<stop offset="1" stop-color="#A6E4E8"/>
</linearGradient>
<radialGradient id="paint2_radial_147_760" cx="0" cy="0" r="1" gradientUnits="userSpaceOnUse" gradientTransform="translate(49.0841 47.523) rotate(-158.727) scale(32.7288 20.4335)">
<stop stop-color="#F7C25D"/>
<stop offset="0.496104" stop-color="#FFCA64"/>
<stop offset="0.959229" stop-color="#E8AB37"/>
</radialGradient>
<radialGradient id="paint3_radial_147_760" cx="0" cy="0" r="1" gradientUnits="userSpaceOnUse" gradientTransform="translate(44.9331 14.9992) rotate(146.138) scale(32.1223 20.8193)">
<stop stop-color="#F7C25D"/>
<stop offset="0.496104" stop-color="#FFCA64"/>
<stop offset="0.959229" stop-color="#E8AB37"/>
</radialGradient>
</defs>
</svg>
