<svg width="164" height="53" viewBox="0 0 164 53" fill="none" xmlns="http://www.w3.org/2000/svg">
<path d="M78.1338 29.4624H80.3237C80.2798 30.1802 80.082 30.8174 79.7305 31.374C79.3838 31.9307 78.8979 32.3652 78.2729 32.6777C77.6528 32.9902 76.9058 33.1465 76.0317 33.1465C75.3481 33.1465 74.7354 33.0293 74.1934 32.7949C73.6514 32.5557 73.1875 32.2139 72.8018 31.7695C72.4209 31.3252 72.1304 30.7881 71.9302 30.1582C71.73 29.5283 71.6299 28.8228 71.6299 28.0415V27.3018C71.6299 26.5205 71.7324 25.8149 71.9375 25.1851C72.1475 24.5503 72.4453 24.0107 72.8311 23.5664C73.2217 23.1221 73.688 22.7803 74.23 22.541C74.772 22.3018 75.3774 22.1821 76.0464 22.1821C76.9351 22.1821 77.6846 22.3433 78.2949 22.6655C78.9102 22.9878 79.3862 23.4321 79.7231 23.9985C80.0649 24.5649 80.27 25.2095 80.3384 25.9321H78.1411C78.1167 25.5024 78.0312 25.1387 77.8848 24.8408C77.7383 24.5381 77.5161 24.311 77.2183 24.1597C76.9253 24.0034 76.5347 23.9253 76.0464 23.9253C75.6802 23.9253 75.3604 23.9937 75.0869 24.1304C74.8135 24.2671 74.584 24.4746 74.3984 24.7529C74.2129 25.0312 74.0737 25.3828 73.981 25.8076C73.8931 26.2275 73.8491 26.7207 73.8491 27.2871V28.0415C73.8491 28.5933 73.8906 29.0791 73.9736 29.499C74.0566 29.9141 74.1836 30.2656 74.3545 30.5537C74.5303 30.8369 74.7549 31.0518 75.0283 31.1982C75.3066 31.3398 75.6411 31.4106 76.0317 31.4106C76.4907 31.4106 76.8691 31.3374 77.167 31.1909C77.4648 31.0444 77.6919 30.8271 77.8481 30.5391C78.0093 30.251 78.1045 29.8921 78.1338 29.4624ZM81.2979 29.1182V28.9644C81.2979 28.3833 81.3809 27.8486 81.5469 27.3604C81.7129 26.8672 81.9546 26.4399 82.272 26.0786C82.5894 25.7173 82.98 25.4365 83.4438 25.2363C83.9077 25.0312 84.4399 24.9287 85.0405 24.9287C85.6411 24.9287 86.1758 25.0312 86.6445 25.2363C87.1133 25.4365 87.5063 25.7173 87.8237 26.0786C88.146 26.4399 88.3901 26.8672 88.5562 27.3604C88.7222 27.8486 88.8052 28.3833 88.8052 28.9644V29.1182C88.8052 29.6943 88.7222 30.229 88.5562 30.7222C88.3901 31.2104 88.146 31.6377 87.8237 32.0039C87.5063 32.3652 87.1157 32.646 86.6519 32.8462C86.188 33.0464 85.6558 33.1465 85.0552 33.1465C84.4546 33.1465 83.9199 33.0464 83.4512 32.8462C82.9873 32.646 82.5942 32.3652 82.272 32.0039C81.9546 31.6377 81.7129 31.2104 81.5469 30.7222C81.3809 30.229 81.2979 29.6943 81.2979 29.1182ZM83.4072 28.9644V29.1182C83.4072 29.4502 83.4365 29.7603 83.4951 30.0483C83.5537 30.3364 83.6465 30.5903 83.7734 30.8101C83.9053 31.0249 84.0762 31.1934 84.2861 31.3154C84.4961 31.4375 84.7524 31.4985 85.0552 31.4985C85.3481 31.4985 85.5996 31.4375 85.8096 31.3154C86.0195 31.1934 86.188 31.0249 86.3149 30.8101C86.4419 30.5903 86.5347 30.3364 86.5933 30.0483C86.6567 29.7603 86.6885 29.4502 86.6885 29.1182V28.9644C86.6885 28.6421 86.6567 28.3394 86.5933 28.0562C86.5347 27.7681 86.4395 27.5142 86.3076 27.2944C86.1807 27.0698 86.0122 26.894 85.8022 26.7671C85.5923 26.6401 85.3384 26.5767 85.0405 26.5767C84.7427 26.5767 84.4888 26.6401 84.2788 26.7671C84.0737 26.894 83.9053 27.0698 83.7734 27.2944C83.6465 27.5142 83.5537 27.7681 83.4951 28.0562C83.4365 28.3394 83.4072 28.6421 83.4072 28.9644ZM89.7646 29.1182V28.9644C89.7646 28.3833 89.8477 27.8486 90.0137 27.3604C90.1797 26.8672 90.4214 26.4399 90.7388 26.0786C91.0562 25.7173 91.4468 25.4365 91.9106 25.2363C92.3745 25.0312 92.9067 24.9287 93.5073 24.9287C94.1079 24.9287 94.6426 25.0312 95.1113 25.2363C95.5801 25.4365 95.9731 25.7173 96.2905 26.0786C96.6128 26.4399 96.8569 26.8672 97.0229 27.3604C97.189 27.8486 97.272 28.3833 97.272 28.9644V29.1182C97.272 29.6943 97.189 30.229 97.0229 30.7222C96.8569 31.2104 96.6128 31.6377 96.2905 32.0039C95.9731 32.3652 95.5825 32.646 95.1187 32.8462C94.6548 33.0464 94.1226 33.1465 93.522 33.1465C92.9214 33.1465 92.3867 33.0464 91.918 32.8462C91.4541 32.646 91.061 32.3652 90.7388 32.0039C90.4214 31.6377 90.1797 31.2104 90.0137 30.7222C89.8477 30.229 89.7646 29.6943 89.7646 29.1182ZM91.874 28.9644V29.1182C91.874 29.4502 91.9033 29.7603 91.9619 30.0483C92.0205 30.3364 92.1133 30.5903 92.2402 30.8101C92.3721 31.0249 92.543 31.1934 92.7529 31.3154C92.9629 31.4375 93.2192 31.4985 93.522 31.4985C93.8149 31.4985 94.0664 31.4375 94.2764 31.3154C94.4863 31.1934 94.6548 31.0249 94.7817 30.8101C94.9087 30.5903 95.0015 30.3364 95.0601 30.0483C95.1235 29.7603 95.1553 29.4502 95.1553 29.1182V28.9644C95.1553 28.6421 95.1235 28.3394 95.0601 28.0562C95.0015 27.7681 94.9062 27.5142 94.7744 27.2944C94.6475 27.0698 94.479 26.894 94.269 26.7671C94.0591 26.6401 93.8052 26.5767 93.5073 26.5767C93.2095 26.5767 92.9556 26.6401 92.7456 26.7671C92.5405 26.894 92.3721 27.0698 92.2402 27.2944C92.1133 27.5142 92.0205 27.7681 91.9619 28.0562C91.9033 28.3394 91.874 28.6421 91.874 28.9644ZM100.678 21.7427V33H98.5684V21.7427H100.678ZM105.673 25.0752L102.23 29.001L100.385 30.8687L99.6157 29.3452L101.081 27.4849L103.139 25.0752H105.673ZM103.483 33L101.139 29.3379L102.597 28.0635L105.915 33H103.483ZM108.808 25.0752V33H106.691V25.0752H108.808ZM106.559 23.0098C106.559 22.7021 106.667 22.4482 106.881 22.248C107.096 22.0479 107.384 21.9478 107.746 21.9478C108.102 21.9478 108.388 22.0479 108.603 22.248C108.822 22.4482 108.932 22.7021 108.932 23.0098C108.932 23.3174 108.822 23.5713 108.603 23.7715C108.388 23.9717 108.102 24.0718 107.746 24.0718C107.384 24.0718 107.096 23.9717 106.881 23.7715C106.667 23.5713 106.559 23.3174 106.559 23.0098ZM114.198 33.1465C113.583 33.1465 113.031 33.0488 112.543 32.8535C112.055 32.6533 111.64 32.3774 111.298 32.0259C110.961 31.6743 110.702 31.2666 110.521 30.8027C110.341 30.334 110.25 29.8359 110.25 29.3086V29.0156C110.25 28.415 110.336 27.8657 110.507 27.3677C110.678 26.8696 110.922 26.4375 111.239 26.0713C111.562 25.7051 111.952 25.4243 112.411 25.229C112.87 25.0288 113.388 24.9287 113.964 24.9287C114.525 24.9287 115.023 25.0215 115.458 25.207C115.893 25.3926 116.256 25.6562 116.549 25.998C116.847 26.3398 117.072 26.75 117.223 27.2285C117.375 27.7021 117.45 28.2295 117.45 28.8105V29.6895H111.151V28.2832H115.377V28.1221C115.377 27.8291 115.324 27.5679 115.216 27.3384C115.114 27.104 114.958 26.9185 114.748 26.7817C114.538 26.645 114.269 26.5767 113.942 26.5767C113.664 26.5767 113.424 26.6377 113.224 26.7598C113.024 26.8818 112.86 27.0527 112.733 27.2725C112.611 27.4922 112.519 27.751 112.455 28.0488C112.396 28.3418 112.367 28.6641 112.367 29.0156V29.3086C112.367 29.626 112.411 29.9189 112.499 30.1875C112.592 30.4561 112.721 30.688 112.887 30.8833C113.058 31.0786 113.263 31.23 113.502 31.3374C113.747 31.4448 114.022 31.4985 114.33 31.4985C114.711 31.4985 115.065 31.4253 115.392 31.2788C115.724 31.1274 116.01 30.9004 116.249 30.5977L117.274 31.7109C117.108 31.9502 116.881 32.1797 116.593 32.3994C116.31 32.6191 115.968 32.7998 115.568 32.9414C115.167 33.0781 114.711 33.1465 114.198 33.1465ZM126.364 30.7734L128.876 22.3359H131.322L127.609 33H125.998L126.364 30.7734ZM124.049 22.3359L126.554 30.7734L126.935 33H125.309L121.618 22.3359H124.049ZM134.413 25.0752V33H132.296V25.0752H134.413ZM132.165 23.0098C132.165 22.7021 132.272 22.4482 132.487 22.248C132.702 22.0479 132.99 21.9478 133.351 21.9478C133.708 21.9478 133.993 22.0479 134.208 22.248C134.428 22.4482 134.538 22.7021 134.538 23.0098C134.538 23.3174 134.428 23.5713 134.208 23.7715C133.993 23.9717 133.708 24.0718 133.351 24.0718C132.99 24.0718 132.702 23.9717 132.487 23.7715C132.272 23.5713 132.165 23.3174 132.165 23.0098ZM140.441 30.8101C140.441 30.6587 140.397 30.522 140.309 30.3999C140.221 30.2778 140.058 30.1655 139.818 30.063C139.584 29.9556 139.245 29.8579 138.8 29.77C138.4 29.6821 138.026 29.5723 137.68 29.4404C137.338 29.3037 137.04 29.1401 136.786 28.9497C136.537 28.7593 136.342 28.5347 136.2 28.2759C136.059 28.0122 135.988 27.7119 135.988 27.375C135.988 27.043 136.059 26.7305 136.2 26.4375C136.347 26.1445 136.554 25.8857 136.823 25.6611C137.096 25.4316 137.428 25.2534 137.819 25.1265C138.214 24.9946 138.659 24.9287 139.152 24.9287C139.84 24.9287 140.431 25.0386 140.924 25.2583C141.422 25.478 141.803 25.7808 142.067 26.1665C142.335 26.5474 142.47 26.9819 142.47 27.4702H140.36C140.36 27.2651 140.316 27.082 140.229 26.9209C140.146 26.7549 140.014 26.6255 139.833 26.5327C139.657 26.4351 139.428 26.3862 139.145 26.3862C138.91 26.3862 138.708 26.4277 138.537 26.5107C138.366 26.5889 138.234 26.6963 138.141 26.833C138.053 26.9648 138.009 27.1113 138.009 27.2725C138.009 27.3945 138.034 27.5044 138.083 27.6021C138.136 27.6948 138.222 27.7803 138.339 27.8584C138.456 27.9365 138.607 28.0098 138.793 28.0781C138.983 28.1416 139.218 28.2002 139.496 28.2539C140.067 28.3711 140.578 28.5249 141.027 28.7153C141.476 28.9009 141.833 29.1548 142.096 29.4771C142.36 29.7944 142.492 30.2119 142.492 30.7295C142.492 31.0811 142.414 31.4033 142.257 31.6963C142.101 31.9893 141.876 32.2456 141.583 32.4653C141.291 32.6802 140.939 32.8486 140.529 32.9707C140.124 33.0879 139.667 33.1465 139.159 33.1465C138.422 33.1465 137.797 33.0146 137.284 32.751C136.776 32.4873 136.391 32.1528 136.127 31.7476C135.868 31.3374 135.739 30.9175 135.739 30.4878H137.738C137.748 30.7759 137.821 31.0078 137.958 31.1836C138.1 31.3594 138.278 31.4863 138.493 31.5645C138.712 31.6426 138.949 31.6816 139.203 31.6816C139.477 31.6816 139.704 31.645 139.884 31.5718C140.065 31.4937 140.202 31.3911 140.294 31.2642C140.392 31.1323 140.441 30.981 140.441 30.8101ZM148.549 31.103V25.0752H150.658V33H148.673L148.549 31.103ZM148.783 29.4771L149.406 29.4624C149.406 29.9897 149.345 30.4805 149.223 30.9346C149.101 31.3838 148.917 31.7744 148.673 32.1064C148.429 32.4336 148.122 32.6899 147.75 32.8755C147.379 33.0562 146.942 33.1465 146.439 33.1465C146.054 33.1465 145.697 33.0928 145.37 32.9854C145.048 32.873 144.77 32.6997 144.535 32.4653C144.306 32.2261 144.125 31.9209 143.993 31.5498C143.866 31.1738 143.803 30.7222 143.803 30.1948V25.0752H145.912V30.2095C145.912 30.4438 145.939 30.6416 145.993 30.8027C146.051 30.9639 146.132 31.0957 146.234 31.1982C146.337 31.3008 146.457 31.374 146.593 31.418C146.735 31.4619 146.891 31.4839 147.062 31.4839C147.497 31.4839 147.838 31.396 148.087 31.2202C148.341 31.0444 148.52 30.8052 148.622 30.5024C148.729 30.1948 148.783 29.853 148.783 29.4771ZM156.547 31.2129V27.6826C156.547 27.4287 156.505 27.2114 156.422 27.0308C156.339 26.8452 156.21 26.7012 156.034 26.5986C155.863 26.4961 155.641 26.4448 155.368 26.4448C155.133 26.4448 154.931 26.4863 154.76 26.5693C154.589 26.6475 154.457 26.7622 154.364 26.9136C154.271 27.0601 154.225 27.2334 154.225 27.4336H152.116C152.116 27.0967 152.194 26.7769 152.35 26.4741C152.506 26.1714 152.733 25.9053 153.031 25.6758C153.329 25.4414 153.683 25.2583 154.093 25.1265C154.508 24.9946 154.972 24.9287 155.485 24.9287C156.1 24.9287 156.647 25.0312 157.125 25.2363C157.604 25.4414 157.98 25.749 158.253 26.1592C158.532 26.5693 158.671 27.082 158.671 27.6973V31.0884C158.671 31.5229 158.698 31.8794 158.751 32.1577C158.805 32.4312 158.883 32.6704 158.986 32.8755V33H156.854C156.752 32.7852 156.674 32.5166 156.62 32.1943C156.571 31.8672 156.547 31.54 156.547 31.2129ZM156.825 28.1733L156.84 29.3672H155.661C155.382 29.3672 155.141 29.3989 154.936 29.4624C154.73 29.5259 154.562 29.6162 154.43 29.7334C154.298 29.8457 154.201 29.9775 154.137 30.1289C154.079 30.2803 154.049 30.4463 154.049 30.627C154.049 30.8076 154.091 30.9712 154.174 31.1177C154.257 31.2593 154.376 31.3716 154.533 31.4546C154.689 31.5327 154.872 31.5718 155.082 31.5718C155.399 31.5718 155.675 31.5083 155.91 31.3813C156.144 31.2544 156.325 31.0981 156.452 30.9126C156.583 30.7271 156.652 30.5513 156.657 30.3853L157.213 31.2788C157.135 31.479 157.028 31.6865 156.891 31.9014C156.759 32.1162 156.591 32.3188 156.386 32.5093C156.181 32.6948 155.934 32.8486 155.646 32.9707C155.358 33.0879 155.016 33.1465 154.621 33.1465C154.118 33.1465 153.661 33.0464 153.251 32.8462C152.846 32.6411 152.523 32.3604 152.284 32.0039C152.05 31.6426 151.933 31.2324 151.933 30.7734C151.933 30.3584 152.011 29.9897 152.167 29.6675C152.323 29.3452 152.553 29.0742 152.855 28.8545C153.163 28.6299 153.546 28.4614 154.005 28.3491C154.464 28.2319 154.997 28.1733 155.602 28.1733H156.825ZM162.523 21.75V33H160.407V21.75H162.523Z" fill="white"/>
<path d="M22.3377 11.3823C14.0536 7.62927 11.1261 14.1569 10.8925 17.2844C7.64843 18.0158 1.64294 20.3107 2.01666 28.4829C2.39038 36.655 9.12774 38.8994 12.4497 39H36.7416H50.3668C67.8071 39 66.25 18.2677 51.4568 18.2677C51.4568 8.65779 45.0724 2.00005 36.7416 2C27.165 2 24.2524 8.53655 22.3377 11.3823Z" fill="url(#paint0_linear_147_783)" stroke="#D4F1F3" stroke-width="3"/>
<path d="M47.98 40.8253L48.3125 36.2215L46.7942 36.0796L43.5609 34.2156C42.1469 34.1106 41.0462 35.4181 40.6727 36.0849L37.9137 36.3704C36.4551 35.5267 33.4474 33.9429 33.0853 34.3573C32.7232 34.7717 29.1409 35.7601 27.395 36.2025C26.3747 35.5752 23.778 34.0955 21.5535 33.195C19.329 32.2944 16.9624 33.3036 16.0571 33.9208L16.5962 37.7912C17.0059 40.7326 19.7867 44.371 21.2309 45.9491C22.6752 47.5271 28.0424 49.6415 30.3919 50.1836C32.7414 50.7257 38.0654 50.0177 39.1 49.9106C39.9277 49.825 43.8562 46.3822 45.717 44.6716L47.98 40.8253Z" fill="url(#paint1_radial_147_783)"/>
<path d="M34.9889 42.3021C34.9503 43.0349 35.5786 42.7472 35.8975 42.5117C36.1287 42.4878 36.6091 42.3166 36.6811 41.8234C36.7531 41.3301 36.0497 41.079 35.6891 41.0151C35.4718 41.1388 35.0276 41.5694 34.9889 42.3021Z" fill="#994B03"/>
<path d="M36.592 46.2354L36.9805 46.4989L37.1747 46.6306L37.5006 46.4451L37.2648 46.014L36.7237 45.9182L36.592 46.2354Z" fill="#994B03"/>
<path d="M25.5257 42.4956C26.158 42.9858 26.298 42.3839 26.289 42.0216C26.4139 41.8521 26.5647 41.4228 26.1681 41.0621C25.7716 40.7014 25.1011 41.0119 24.8154 41.2123C24.7887 41.4358 24.8933 42.0054 25.5257 42.4956Z" fill="#994B03"/>
<path d="M33.2658 46.4281C33.3044 45.6954 32.047 44.8336 31.4134 44.4943L30.609 45.033C30.4473 45.5558 30.2141 46.7439 30.5749 47.3139C30.9357 47.8838 31.8628 48.1422 32.2813 48.2001C32.5933 47.9147 33.2271 47.1609 33.2658 46.4281Z" fill="#994B03"/>
<path d="M29.5402 42.4108C30.3168 41.6726 31.5023 40.0823 29.3384 39.6989C27.1744 39.3156 28.7358 42.9495 29.5402 42.4108Z" fill="#994B03"/>
<ellipse cx="1.2089" cy="0.871538" rx="1.2089" ry="0.871538" transform="matrix(-0.137954 -0.990422 -0.994701 0.102934 40.6348 43.6924)" fill="#994B03"/>
<path d="M41.8459 35.9756C41.6685 36.7227 41.0185 36.7697 40.7156 36.6999C40.5908 37.067 40.5785 37.9893 41.5275 38.7413C42.4765 39.4933 43.4534 39.0987 43.8233 38.8074C44.4612 38.3365 45.6649 37.129 45.3761 36.0657C45.0873 35.0025 43.8592 34.8563 43.2813 34.9161C42.8767 34.958 42.0232 35.2285 41.8459 35.9756Z" fill="#994B03"/>
<path d="M43.7817 38.5076C43.8088 38.5048 43.8265 38.495 43.8371 38.479C44.4897 38.1251 45.3384 37.056 45.2238 36.2328C45.1404 35.6342 44.4144 35.0514 44.1901 35.1252C44.1323 35.1312 44.6828 36.137 44.0726 36.8074C43.3688 37.5807 43.9391 38.3242 43.8371 38.479C43.8184 38.4891 43.8 38.4986 43.7817 38.5076Z" fill="white" fill-opacity="0.35"/>
<path d="M45.571 21.7389L47.0734 26.1429L45.6305 26.5974L42.9576 29.0829C41.6069 29.4798 40.2 28.439 39.6653 27.869L36.9043 28.167C35.6993 29.2909 33.1744 31.4571 32.7156 31.13C32.2568 30.8029 28.5137 30.5896 26.6995 30.5239C25.8661 31.3462 23.715 33.3255 21.7783 34.6645C19.8416 36.0034 17.2776 35.5164 16.2377 35.1056L15.7722 31.2325C15.4185 28.289 17.1963 24.1738 18.1995 22.3393C19.2026 20.5048 23.8904 17.331 26.0406 16.3142C28.1908 15.2975 33.5589 14.875 34.5943 14.7633C35.4226 14.6739 40.1311 17.1997 42.3818 18.4737L45.571 21.7389Z" fill="url(#paint2_radial_147_783)"/>
<path d="M32.5357 23.0126C32.3105 22.3087 32.9963 22.4571 33.3673 22.6194C33.5986 22.5944 34.1104 22.6605 34.3068 23.1248C34.5032 23.589 33.8823 23.9797 33.5473 24.117C33.3039 24.0422 32.7609 23.7165 32.5357 23.0126Z" fill="#994B03"/>
<path d="M33.0907 18.8564L33.4018 18.5194L33.5573 18.3509L33.9223 18.4632L33.8028 18.9313L33.3003 19.1372L33.0907 18.8564Z" fill="#994B03"/>
<path d="M23.2669 24.7982C23.7574 24.19 24.0479 24.7457 24.1318 25.0995C24.2969 25.2382 24.5537 25.6239 24.2597 26.0571C23.9657 26.4903 23.233 26.3284 22.9034 26.1933C22.8201 25.9817 22.7763 25.4064 23.2669 24.7982Z" fill="#994B03"/>
<path d="M29.8014 19.3636C30.0266 20.0675 29.0222 21.1671 28.4918 21.6289L27.5702 21.2732C27.2789 20.799 26.7476 19.6932 26.9532 19.0641C27.1588 18.4351 27.9959 17.9908 28.3888 17.8472C28.7658 18.0594 29.5762 18.6597 29.8014 19.3636Z" fill="#994B03"/>
<path d="M27.2002 24.044C28.1457 24.5993 29.7078 25.8973 27.6977 26.7211C25.6875 27.5449 26.2786 23.6883 27.2002 24.044Z" fill="#994B03"/>
<ellipse cx="1.20679" cy="0.872579" rx="1.20679" ry="0.872579" transform="matrix(0.11932 0.992841 -0.994239 0.107313 37.6807 20.4844)" fill="#994B03"/>
<path d="M40.8367 27.7299C40.4727 27.041 39.8273 27.1309 39.5501 27.2619C39.3346 26.9312 39.0865 26.0376 39.8186 25.109C40.5506 24.1804 41.6034 24.3601 42.0383 24.566C42.7803 24.8905 44.2621 25.8128 44.2529 26.9061C44.2437 27.9994 43.0847 28.3976 42.5063 28.46C42.1014 28.5037 41.2007 28.4188 40.8367 27.7299Z" fill="#994B03"/>
<path d="M42.0744 24.866C42.1015 24.8631 42.1212 24.8688 42.1356 24.8822C42.862 25.0899 43.9626 25.9518 44.0616 26.7755C44.1336 27.3745 43.5754 28.0922 43.3381 28.0672C43.2802 28.0735 43.559 26.9814 42.793 26.4573C41.9093 25.8527 42.2746 25.0113 42.1356 24.8822C42.1149 24.8762 42.0945 24.8708 42.0744 24.866Z" fill="white" fill-opacity="0.35"/>
<defs>
<linearGradient id="paint0_linear_147_783" x1="7" y1="2" x2="63" y2="51.5" gradientUnits="userSpaceOnUse">
<stop offset="0.113123" stop-color="#B3E9ED"/>
<stop offset="0.317708" stop-color="#DBF7F9"/>
<stop offset="0.479167" stop-color="#EAFCFD"/>
<stop offset="0.625" stop-color="#F1FEFF"/>
<stop offset="0.760417" stop-color="#E8FCFD"/>
<stop offset="0.869792" stop-color="#9FCDD3"/>
</linearGradient>
<radialGradient id="paint1_radial_147_783" cx="0" cy="0" r="1" gradientUnits="userSpaceOnUse" gradientTransform="translate(49.0832 47.524) rotate(-158.727) scale(32.7288 20.4335)">
<stop stop-color="#F7C25D"/>
<stop offset="0.496104" stop-color="#FFCA64"/>
<stop offset="0.959229" stop-color="#E8AB37"/>
</radialGradient>
<radialGradient id="paint2_radial_147_783" cx="0" cy="0" r="1" gradientUnits="userSpaceOnUse" gradientTransform="translate(44.9312 15.0001) rotate(146.138) scale(32.1223 20.8193)">
<stop stop-color="#F7C25D"/>
<stop offset="0.496104" stop-color="#FFCA64"/>
<stop offset="0.959229" stop-color="#E8AB37"/>
</radialGradient>
</defs>
</svg>
