<svg width="261" height="40" viewBox="0 0 261 40" fill="none" xmlns="http://www.w3.org/2000/svg">
<g clip-path="url(#clip0_246_7602)">
<path d="M35 0H5C2.23858 0 0 2.23858 0 5V35C0 37.7614 2.23858 40 5 40H35C37.7614 40 40 37.7614 40 35V5C40 2.23858 37.7614 0 35 0Z" fill="black"/>
<path d="M20.91 11.65C20.07 11.65 19.3 11.86 18.6 12.28C17.9 12.68 17.29 13.26 16.77 14.02C16.27 14.78 15.88 15.7 15.6 16.78C15.34 17.84 15.21 19.03 15.21 20.35C15.21 21.71 15.35 22.93 15.63 24.01C15.91 25.07 16.3 25.98 16.8 26.74C17.32 27.5 17.96 28.08 18.72 28.48C19.48 28.86 20.34 29.05 21.3 29.05C22.34 29.05 23.25 28.8 24.03 28.3C24.83 27.8 25.5 27.11 26.04 26.23C26.58 25.33 26.97 24.31 27.21 23.17L29.25 23.98C28.93 25.4 28.4 26.67 27.66 27.79C26.92 28.89 25.97 29.75 24.81 30.37C23.67 30.99 22.31 31.3 20.73 31.3C19.19 31.3 17.77 31.04 16.47 30.52C15.19 29.98 14.08 29.23 13.14 28.27C12.2 27.29 11.47 26.13 10.95 24.79C10.43 23.45 10.17 21.97 10.17 20.35C10.17 18.73 10.44 17.25 10.98 15.91C11.52 14.57 12.26 13.42 13.2 12.46C14.14 11.48 15.22 10.73 16.44 10.21C17.68 9.67 19 9.4 20.4 9.4C21.8 9.4 22.97 9.63 23.91 10.09C24.85 10.55 25.61 11.19 26.19 12.01C26.79 12.81 27.26 13.75 27.6 14.83L26.19 14.62L26.73 9.7H28.89V16.33H26.4C26.1 15.37 25.71 14.55 25.23 13.87C24.75 13.17 24.16 12.63 23.46 12.25C22.76 11.85 21.91 11.65 20.91 11.65Z" fill="white"/>
</g>
<path d="M62.97 23.32C62.97 24.88 62.62 26.27 61.92 27.49C61.22 28.69 60.23 29.63 58.95 30.31C57.69 30.97 56.21 31.3 54.51 31.3C52.83 31.3 51.35 30.97 50.07 30.31C48.81 29.63 47.83 28.69 47.13 27.49C46.43 26.27 46.08 24.88 46.08 23.32C46.08 22.16 46.28 21.09 46.68 20.11C47.08 19.13 47.65 18.29 48.39 17.59C49.15 16.87 50.04 16.32 51.06 15.94C52.1 15.56 53.25 15.37 54.51 15.37C55.79 15.37 56.94 15.56 57.96 15.94C59 16.32 59.89 16.87 60.63 17.59C61.39 18.29 61.97 19.13 62.37 20.11C62.77 21.09 62.97 22.16 62.97 23.32ZM50.79 23.32C50.79 24.58 50.93 25.66 51.21 26.56C51.51 27.44 51.94 28.11 52.5 28.57C53.06 29.03 53.73 29.26 54.51 29.26C55.31 29.26 55.98 29.03 56.52 28.57C57.08 28.11 57.51 27.44 57.81 26.56C58.11 25.66 58.26 24.58 58.26 23.32C58.26 22.06 58.11 21 57.81 20.14C57.51 19.26 57.08 18.59 56.52 18.13C55.98 17.67 55.31 17.44 54.51 17.44C53.73 17.44 53.06 17.67 52.5 18.13C51.94 18.59 51.51 19.26 51.21 20.14C50.93 21 50.79 22.06 50.79 23.32ZM84.713 23.32C84.713 24.88 84.363 26.27 83.663 27.49C82.963 28.69 81.973 29.63 80.693 30.31C79.433 30.97 77.953 31.3 76.253 31.3C74.573 31.3 73.093 30.97 71.813 30.31C70.553 29.63 69.573 28.69 68.873 27.49C68.173 26.27 67.823 24.88 67.823 23.32C67.823 22.16 68.023 21.09 68.423 20.11C68.823 19.13 69.393 18.29 70.133 17.59C70.893 16.87 71.783 16.32 72.803 15.94C73.843 15.56 74.993 15.37 76.253 15.37C77.533 15.37 78.683 15.56 79.703 15.94C80.743 16.32 81.633 16.87 82.373 17.59C83.133 18.29 83.713 19.13 84.113 20.11C84.513 21.09 84.713 22.16 84.713 23.32ZM72.533 23.32C72.533 24.58 72.673 25.66 72.953 26.56C73.253 27.44 73.683 28.11 74.243 28.57C74.803 29.03 75.473 29.26 76.253 29.26C77.053 29.26 77.723 29.03 78.263 28.57C78.823 28.11 79.253 27.44 79.553 26.56C79.853 25.66 80.003 24.58 80.003 23.32C80.003 22.06 79.853 21 79.553 20.14C79.253 19.26 78.823 18.59 78.263 18.13C77.723 17.67 77.053 17.44 76.253 17.44C75.473 17.44 74.803 17.67 74.243 18.13C73.683 18.59 73.253 19.26 72.953 20.14C72.673 21 72.533 22.06 72.533 23.32ZM108.016 31H99.2259V29.35H99.3159C99.5159 29.35 99.7459 29.34 100.006 29.32C100.266 29.3 100.486 29.27 100.666 29.23C100.846 29.17 100.936 29.11 100.936 29.05L96.5259 23.2V22.72L101.806 17.86C101.806 17.72 101.676 17.61 101.416 17.53C101.176 17.45 100.876 17.4 100.516 17.38C100.176 17.34 99.8659 17.32 99.5859 17.32H99.4059V15.67H106.966V17.32H106.906C106.526 17.32 106.146 17.38 105.766 17.5C105.406 17.6 105.056 17.75 104.716 17.95C104.396 18.13 104.076 18.37 103.756 18.67L99.1359 22.87L99.8859 20.92L105.526 28.27C105.746 28.55 105.986 28.77 106.246 28.93C106.506 29.07 106.776 29.18 107.056 29.26C107.356 29.32 107.656 29.35 107.956 29.35H108.016V31ZM95.8359 8.92V29.05C95.8359 29.11 95.9259 29.17 96.1059 29.23C96.2859 29.27 96.5059 29.3 96.7659 29.32C97.0259 29.34 97.2559 29.35 97.4559 29.35H97.5459V31H89.3859V29.35H89.4159C89.9559 29.35 90.3959 29.29 90.7359 29.17C91.0959 29.03 91.2759 28.77 91.2759 28.39V11.83C91.2759 11.57 91.2159 11.38 91.0959 11.26C90.9959 11.12 90.8259 11.01 90.5859 10.93C90.3459 10.85 90.0259 10.77 89.6259 10.69L89.3559 10.63V8.92H95.8359ZM116.234 13.15C115.454 13.15 114.824 12.95 114.344 12.55C113.884 12.15 113.654 11.59 113.654 10.87C113.654 10.17 113.884 9.63 114.344 9.25C114.824 8.85 115.454 8.65 116.234 8.65C117.014 8.65 117.634 8.85 118.094 9.25C118.574 9.63 118.814 10.17 118.814 10.87C118.814 11.59 118.574 12.15 118.094 12.55C117.634 12.95 117.014 13.15 116.234 13.15ZM118.604 15.67V28.39C118.604 28.77 118.784 29.03 119.144 29.17C119.504 29.29 119.944 29.35 120.464 29.35H120.494V31H112.154V29.35H112.184C112.724 29.35 113.164 29.29 113.504 29.17C113.864 29.03 114.044 28.77 114.044 28.39V18.58C114.044 18.22 113.914 17.97 113.654 17.83C113.394 17.69 112.974 17.56 112.394 17.44L112.124 17.38V15.67H118.604ZM129.439 23.41C129.439 24.33 129.529 25.15 129.709 25.87C129.909 26.59 130.199 27.19 130.579 27.67C130.959 28.15 131.419 28.52 131.959 28.78C132.519 29.02 133.149 29.14 133.849 29.14C134.589 29.14 135.229 29 135.769 28.72C136.309 28.42 136.769 28.05 137.149 27.61C137.549 27.17 137.879 26.72 138.139 26.26L139.849 27.55C139.469 28.27 138.979 28.92 138.379 29.5C137.779 30.06 137.059 30.5 136.219 30.82C135.379 31.14 134.389 31.3 133.249 31.3C131.589 31.3 130.129 30.98 128.869 30.34C127.609 29.7 126.619 28.79 125.899 27.61C125.199 26.41 124.849 25 124.849 23.38C124.849 21.78 125.189 20.38 125.869 19.18C126.569 17.98 127.509 17.05 128.689 16.39C129.889 15.71 131.229 15.37 132.709 15.37C133.909 15.37 134.959 15.55 135.859 15.91C136.779 16.27 137.549 16.82 138.169 17.56C138.789 18.28 139.259 19.19 139.579 20.29C139.919 21.37 140.089 22.64 140.089 24.1H128.779V22.15H136.459L135.709 22.93C135.689 21.93 135.619 21.08 135.499 20.38C135.379 19.68 135.199 19.12 134.959 18.7C134.739 18.26 134.439 17.94 134.059 17.74C133.699 17.54 133.269 17.44 132.769 17.44C132.289 17.44 131.849 17.57 131.449 17.83C131.049 18.07 130.699 18.44 130.399 18.94C130.099 19.42 129.859 20.04 129.679 20.8C129.519 21.54 129.439 22.41 129.439 23.41ZM166.465 29.32L165.625 28.18L170.965 12.01C170.965 11.89 170.865 11.79 170.665 11.71C170.465 11.63 170.215 11.57 169.915 11.53C169.615 11.49 169.305 11.47 168.985 11.47H168.535V9.7H174.985V11.47H174.835C174.355 11.47 173.975 11.56 173.695 11.74C173.435 11.9 173.215 12.25 173.035 12.79L166.975 31H162.265L155.995 12.31C155.875 11.93 155.675 11.7 155.395 11.62C155.115 11.52 154.755 11.47 154.315 11.47H154.165V9.7H163.255V11.47H162.745C162.445 11.47 162.135 11.48 161.815 11.5C161.515 11.52 161.255 11.55 161.035 11.59C160.835 11.63 160.735 11.69 160.735 11.77L166.465 29.32ZM182.991 13.15C182.211 13.15 181.581 12.95 181.101 12.55C180.641 12.15 180.411 11.59 180.411 10.87C180.411 10.17 180.641 9.63 181.101 9.25C181.581 8.85 182.211 8.65 182.991 8.65C183.771 8.65 184.391 8.85 184.851 9.25C185.331 9.63 185.571 10.17 185.571 10.87C185.571 11.59 185.331 12.15 184.851 12.55C184.391 12.95 183.771 13.15 182.991 13.15ZM185.361 15.67V28.39C185.361 28.77 185.541 29.03 185.901 29.17C186.261 29.29 186.701 29.35 187.221 29.35H187.251V31H178.911V29.35H178.941C179.481 29.35 179.921 29.29 180.261 29.17C180.621 29.03 180.801 28.77 180.801 28.39V18.58C180.801 18.22 180.671 17.97 180.411 17.83C180.151 17.69 179.731 17.56 179.151 17.44L178.881 17.38V15.67H185.361ZM200.814 27.22C200.814 26.86 200.714 26.56 200.514 26.32C200.314 26.08 200.034 25.88 199.674 25.72C199.334 25.54 198.944 25.39 198.504 25.27C198.084 25.15 197.624 25.03 197.124 24.91C196.504 24.75 195.884 24.57 195.264 24.37C194.664 24.15 194.104 23.87 193.584 23.53C193.084 23.17 192.674 22.72 192.354 22.18C192.054 21.62 191.904 20.92 191.904 20.08C191.904 19.08 192.164 18.23 192.684 17.53C193.204 16.81 193.944 16.26 194.904 15.88C195.864 15.5 196.994 15.31 198.294 15.31C199.334 15.31 200.234 15.39 200.994 15.55C201.754 15.71 202.374 15.9 202.854 16.12C203.354 16.34 203.704 16.53 203.904 16.69V19.84H200.544V17.14C200.824 17.14 201.034 17.18 201.174 17.26C201.334 17.34 201.434 17.45 201.474 17.59C201.534 17.73 201.554 17.89 201.534 18.07C201.514 18.23 201.474 18.39 201.414 18.55C201.194 18.29 200.924 18.07 200.604 17.89C200.304 17.69 199.964 17.55 199.584 17.47C199.204 17.37 198.774 17.32 198.294 17.32C197.454 17.32 196.814 17.49 196.374 17.83C195.954 18.17 195.744 18.62 195.744 19.18C195.744 19.56 195.844 19.88 196.044 20.14C196.264 20.38 196.554 20.59 196.914 20.77C197.274 20.93 197.684 21.08 198.144 21.22C198.604 21.34 199.094 21.47 199.614 21.61C200.234 21.77 200.854 21.96 201.474 22.18C202.094 22.38 202.664 22.66 203.184 23.02C203.704 23.36 204.114 23.8 204.414 24.34C204.734 24.86 204.894 25.51 204.894 26.29C204.894 27.33 204.624 28.22 204.084 28.96C203.544 29.7 202.754 30.28 201.714 30.7C200.674 31.1 199.414 31.3 197.934 31.3C196.874 31.3 195.924 31.22 195.084 31.06C194.244 30.9 193.514 30.69 192.894 30.43C192.294 30.17 191.794 29.92 191.394 29.68V26.29H194.814V29.86C194.494 29.68 194.244 29.5 194.064 29.32C193.884 29.12 193.764 28.93 193.704 28.75C193.644 28.55 193.634 28.37 193.674 28.21C193.734 28.03 193.834 27.9 193.974 27.82C194.274 28.16 194.614 28.44 194.994 28.66C195.394 28.88 195.834 29.04 196.314 29.14C196.814 29.24 197.344 29.29 197.904 29.29C198.524 29.29 199.044 29.21 199.464 29.05C199.884 28.89 200.214 28.66 200.454 28.36C200.694 28.04 200.814 27.66 200.814 27.22ZM215.216 15.67V26.11C215.216 26.71 215.276 27.21 215.396 27.61C215.536 27.99 215.746 28.27 216.026 28.45C216.306 28.63 216.686 28.72 217.166 28.72C217.686 28.72 218.176 28.6 218.636 28.36C219.096 28.1 219.536 27.72 219.956 27.22C220.376 26.7 220.786 26.04 221.186 25.24L221.246 27.76C220.786 28.54 220.276 29.19 219.716 29.71C219.176 30.23 218.566 30.63 217.886 30.91C217.206 31.17 216.456 31.3 215.636 31.3C214.636 31.3 213.766 31.12 213.026 30.76C212.286 30.38 211.706 29.81 211.286 29.05C210.886 28.29 210.686 27.35 210.686 26.23V18.58C210.686 18.22 210.556 17.97 210.296 17.83C210.036 17.67 209.616 17.54 209.036 17.44L208.736 17.38V15.67H215.216ZM225.146 15.67V28.3C225.146 28.54 225.216 28.73 225.356 28.87C225.516 28.99 225.726 29.08 225.986 29.14C226.266 29.2 226.586 29.24 226.946 29.26L227.096 29.29V31H220.946V27.67L220.616 27.61V18.58C220.616 18.22 220.456 17.97 220.136 17.83C219.816 17.67 219.366 17.55 218.786 17.47L218.246 17.38V15.67H225.146ZM241.51 21.76L241.48 23.44C240.7 23.54 240 23.66 239.38 23.8C238.76 23.94 238.22 24.12 237.76 24.34C237.32 24.54 236.95 24.78 236.65 25.06C236.37 25.32 236.15 25.62 235.99 25.96C235.85 26.3 235.78 26.67 235.78 27.07C235.78 27.53 235.87 27.93 236.05 28.27C236.23 28.59 236.48 28.84 236.8 29.02C237.12 29.18 237.49 29.26 237.91 29.26C238.45 29.26 238.94 29.12 239.38 28.84C239.82 28.56 240.21 28.16 240.55 27.64C240.89 27.12 241.18 26.52 241.42 25.84L241.48 27.88C241.18 28.6 240.79 29.22 240.31 29.74C239.85 30.24 239.29 30.63 238.63 30.91C237.97 31.17 237.22 31.3 236.38 31.3C235.4 31.3 234.54 31.15 233.8 30.85C233.06 30.53 232.48 30.07 232.06 29.47C231.66 28.85 231.46 28.11 231.46 27.25C231.46 26.41 231.67 25.69 232.09 25.09C232.53 24.49 233.17 23.98 234.01 23.56C234.85 23.12 235.89 22.76 237.13 22.48C238.39 22.18 239.85 21.94 241.51 21.76ZM241.12 31V27.97H240.79V20.08C240.79 19.44 240.69 18.92 240.49 18.52C240.31 18.12 240.04 17.84 239.68 17.68C239.32 17.5 238.87 17.41 238.33 17.41C237.51 17.41 236.84 17.59 236.32 17.95C235.8 18.29 235.39 18.7 235.09 19.18C234.97 18.96 234.91 18.76 234.91 18.58C234.91 18.38 234.96 18.2 235.06 18.04C235.18 17.86 235.33 17.71 235.51 17.59C235.71 17.47 235.93 17.38 236.17 17.32V20.5H232.48V17.29C232.78 17.07 233.21 16.81 233.77 16.51C234.33 16.21 235.03 15.95 235.87 15.73C236.71 15.49 237.68 15.37 238.78 15.37C239.68 15.37 240.52 15.47 241.3 15.67C242.08 15.85 242.76 16.14 243.34 16.54C243.94 16.94 244.4 17.47 244.72 18.13C245.06 18.77 245.23 19.56 245.23 20.5V28.3C245.23 28.54 245.3 28.73 245.44 28.87C245.6 28.99 245.81 29.08 246.07 29.14C246.35 29.2 246.67 29.24 247.03 29.26L247.12 29.29V31H241.12ZM257.448 8.92V28.39C257.448 28.77 257.618 29.03 257.958 29.17C258.318 29.29 258.768 29.35 259.308 29.35H259.368V31H250.998V29.35H251.028C251.588 29.35 252.038 29.29 252.378 29.17C252.738 29.03 252.918 28.77 252.918 28.39V11.83C252.918 11.57 252.858 11.38 252.738 11.26C252.618 11.12 252.438 11.01 252.198 10.93C251.958 10.85 251.648 10.77 251.268 10.69L250.968 10.63V8.92H257.448Z" fill="white"/>
<defs>
<clipPath id="clip0_246_7602">
<rect width="40" height="40" fill="white"/>
</clipPath>
</defs>
</svg>
