<svg width="40" height="40" viewBox="0 0 40 40" fill="none" xmlns="http://www.w3.org/2000/svg">
<g clip-path="url(#clip0_246_7540)">
<path d="M35 0H5C2.23858 0 0 2.23858 0 5V35C0 37.7614 2.23858 40 5 40H35C37.7614 40 40 37.7614 40 35V5C40 2.23858 37.7614 0 35 0Z" fill="black"/>
<path d="M20.91 11.65C20.07 11.65 19.3 11.86 18.6 12.28C17.9 12.68 17.29 13.26 16.77 14.02C16.27 14.78 15.88 15.7 15.6 16.78C15.34 17.84 15.21 19.03 15.21 20.35C15.21 21.71 15.35 22.93 15.63 24.01C15.91 25.07 16.3 25.98 16.8 26.74C17.32 27.5 17.96 28.08 18.72 28.48C19.48 28.86 20.34 29.05 21.3 29.05C22.34 29.05 23.25 28.8 24.03 28.3C24.83 27.8 25.5 27.11 26.04 26.23C26.58 25.33 26.97 24.31 27.21 23.17L29.25 23.98C28.93 25.4 28.4 26.67 27.66 27.79C26.92 28.89 25.97 29.75 24.81 30.37C23.67 30.99 22.31 31.3 20.73 31.3C19.19 31.3 17.77 31.04 16.47 30.52C15.19 29.98 14.08 29.23 13.14 28.27C12.2 27.29 11.47 26.13 10.95 24.79C10.43 23.45 10.17 21.97 10.17 20.35C10.17 18.73 10.44 17.25 10.98 15.91C11.52 14.57 12.26 13.42 13.2 12.46C14.14 11.48 15.22 10.73 16.44 10.21C17.68 9.67 19 9.4 20.4 9.4C21.8 9.4 22.97 9.63 23.91 10.09C24.85 10.55 25.61 11.19 26.19 12.01C26.79 12.81 27.26 13.75 27.6 14.83L26.19 14.62L26.73 9.7H28.89V16.33H26.4C26.1 15.37 25.71 14.55 25.23 13.87C24.75 13.17 24.16 12.63 23.46 12.25C22.76 11.85 21.91 11.65 20.91 11.65Z" fill="white"/>
</g>
<defs>
<clipPath id="clip0_246_7540">
<rect width="40" height="40" fill="white"/>
</clipPath>
</defs>
</svg>
